<?xml version="1.0" encoding="UTF-8"?>
<svg id="Layer_1" xmlns="http://www.w3.org/2000/svg" version="1.1" viewBox="0 0 596.89 251.86">
  <!-- Generator: Adobe Illustrator 29.5.0, SVG Export Plug-In . SVG Version: 2.1.0 Build 137)  -->
  <defs>
    <style>
      .st0 {
        fill: #231f20;
      }

      .st0, .st1 {
        fill-rule: evenodd;
      }

      .st1 {
        fill: #ec1c24;
      }
    </style>
  </defs>
  <g>
    <path class="st1" d="M140.71,97.61c.29.29,64.45,146.65,64.39,146.53h-42.05c0-.45-19.92-47.72-19.71-47.96h-45.34c.41.12,43.34-99.06,42.71-98.56h0Z"/>
    <path class="st1" d="M4.04,7.72h98.56c.29-.06-97.9,236.39-98.23,236.08,0-.33-.23-236.25-.33-236.08h0Z"/>
    <path class="st1" d="M177.63,7.72h101.91c0,.6-.07,236.53-.07,236.2.06.76-101.84-236.2-101.84-236.2h0Z"/>
  </g>
  <g>
    <path class="st0" d="M345.41,77.81l21.9,93.7h-15.95l-3.75-17.53h-19.81l-3.65,17.53h-15.95l21.9-93.7h15.33ZM344.57,138.04l-6.88-35.07-6.88,35.07h13.76Z"/>
    <path class="st0" d="M403.18,171.51l-.42-8.17h-.52c-2.19,6.43-6.88,10.71-12.83,10.71-14.08,0-20.02-16.46-20.02-36.81,0-17.4,4.38-36.28,20.23-36.28,5.53,0,8.13,2.01,12.1,7.23v-30.39h14.08v93.7h-12.62ZM393.17,114.75c-3.86,0-9.18,3.75-9.18,22.76,0,8.83,1.15,23.02,9.18,23.02s9.17-12.72,9.17-23.02c0-19.01-5.42-22.76-9.17-22.76h0Z"/>
    <path class="st0" d="M425.71,137.37c0-21.02,7.3-36.41,23.88-36.41s23.88,15.39,23.88,36.41-7.51,36.68-23.88,36.68-23.88-15.39-23.88-36.68h0ZM458.87,137.37c0-18.47-3.86-22.76-9.28-22.76-4.27,0-9.28,3.21-9.28,22.76s5.01,23.02,9.28,23.02c6.05,0,9.28-5.62,9.28-23.02h0Z"/>
    <path class="st0" d="M495.77,171.51h-12.62v-93.7h14.18v31.19c2.92-6.69,8.45-8.03,11.99-8.03,14.91,0,20.33,15.66,20.33,36.28s-5.32,36.81-20.23,36.81c-6.15,0-9.8-3.08-12.83-10.71h-.42l-.42,8.17h0ZM505.88,160.4c7.72,0,9.18-12.72,9.18-23.02,0-19.01-5.42-22.76-9.18-22.76s-9.17,3.75-9.17,22.76c0,8.84,1.15,23.02,9.17,23.02h0Z"/>
    <path class="st0" d="M583.05,151.83c-3.54,20.61-15.01,22.22-22.73,22.22-8.65,0-23.46-3.21-23.46-36.68,0-23.29,9.59-36.41,24.5-36.41,9.38,0,22.63,5.22,22.63,37.75v3.75h-32.53c0,16.06,5.53,17.94,9.49,17.94,3.23,0,6.57-.94,7.92-8.57h14.18ZM569.39,131.08c-.42-13.79-3.76-16.46-8.45-16.46-8.03,0-9.38,11.38-9.49,16.46h17.93Z"/>
  </g>
</svg>