<?xml version="1.0" encoding="UTF-8"?>
<svg id="Layer_1" xmlns="http://www.w3.org/2000/svg" version="1.1" viewBox="0 0 411.53 251.86">
  <!-- Generator: Adobe Illustrator 29.5.0, SVG Export Plug-In . SVG Version: 2.1.0 Build 137)  -->
  <defs>
    <style>
      .st0 {
        fill: #f90;
        fill-rule: evenodd;
      }

      .st1 {
        fill: #252f3e;
      }
    </style>
  </defs>
  <path class="st1" d="M116.18,92.78c0,4.99.54,9.03,1.48,11.99,1.08,2.96,2.43,6.2,4.31,9.7.67,1.08.94,2.16.94,3.1,0,1.35-.81,2.7-2.56,4.04l-8.49,5.66c-1.21.81-2.43,1.21-3.5,1.21-1.35,0-2.7-.67-4.04-1.89-1.89-2.02-3.5-4.18-4.85-6.33-1.35-2.29-2.69-4.85-4.18-7.95-10.51,12.4-23.72,18.6-39.62,18.6-11.32,0-20.35-3.23-26.95-9.7-6.6-6.47-9.97-15.09-9.97-25.87,0-11.45,4.04-20.75,12.26-27.76,8.22-7.01,19.13-10.51,33.01-10.51,4.58,0,9.3.4,14.28,1.08,4.99.67,10.11,1.75,15.5,2.96v-9.84c0-10.24-2.16-17.38-6.33-21.56-4.31-4.18-11.59-6.2-21.96-6.2-4.72,0-9.57.54-14.55,1.75-4.99,1.21-9.84,2.69-14.55,4.58-2.16.94-3.77,1.48-4.72,1.75-.94.27-1.62.4-2.16.4-1.89,0-2.83-1.35-2.83-4.18v-6.6c0-2.16.27-3.77.94-4.72.67-.94,1.89-1.89,3.77-2.83,4.72-2.43,10.38-4.45,16.98-6.06,6.6-1.75,13.61-2.56,21.02-2.56,16.04,0,27.76,3.64,35.3,10.91,7.41,7.28,11.18,18.33,11.18,33.15v43.66h.27ZM61.47,113.26c4.45,0,9.03-.81,13.88-2.43,4.85-1.62,9.16-4.58,12.8-8.62,2.16-2.56,3.77-5.39,4.58-8.62.81-3.23,1.35-7.14,1.35-11.72v-5.66c-3.91-.94-8.09-1.75-12.4-2.29-4.31-.54-8.49-.81-12.67-.81-9.03,0-15.63,1.75-20.08,5.39-4.45,3.64-6.6,8.76-6.6,15.5,0,6.33,1.62,11.05,4.99,14.28,3.23,3.37,7.95,4.99,14.15,4.99ZM169.67,127.82c-2.43,0-4.04-.4-5.12-1.35-1.08-.81-2.02-2.7-2.83-5.26l-31.67-104.16c-.81-2.7-1.21-4.45-1.21-5.39,0-2.16,1.08-3.37,3.23-3.37h13.21c2.56,0,4.31.4,5.26,1.35,1.08.81,1.89,2.7,2.7,5.26l22.64,89.2,21.02-89.2c.67-2.7,1.48-4.45,2.56-5.26,1.08-.81,2.96-1.35,5.39-1.35h10.78c2.56,0,4.31.4,5.39,1.35,1.08.81,2.02,2.7,2.56,5.26l21.29,90.28,23.31-90.28c.81-2.7,1.75-4.45,2.69-5.26,1.08-.81,2.83-1.35,5.26-1.35h12.53c2.16,0,3.37,1.08,3.37,3.37,0,.67-.13,1.35-.27,2.16-.13.81-.4,1.89-.94,3.37l-32.47,104.16c-.81,2.7-1.75,4.45-2.83,5.26-1.08.81-2.83,1.35-5.12,1.35h-11.59c-2.56,0-4.31-.4-5.39-1.35-1.08-.94-2.02-2.7-2.56-5.39l-20.89-86.91-20.75,86.78c-.67,2.7-1.48,4.45-2.56,5.39-1.08.94-2.96,1.35-5.39,1.35h-11.59ZM342.83,131.45c-7.01,0-14.01-.81-20.75-2.43-6.74-1.62-11.99-3.37-15.5-5.39-2.16-1.21-3.64-2.56-4.18-3.77-.54-1.21-.81-2.56-.81-3.77v-6.87c0-2.83,1.08-4.18,3.1-4.18.81,0,1.62.13,2.43.4.81.27,2.02.81,3.37,1.35,4.58,2.02,9.57,3.64,14.82,4.72,5.39,1.08,10.64,1.62,16.04,1.62,8.49,0,15.09-1.48,19.67-4.45,4.58-2.96,7.01-7.28,7.01-12.8,0-3.77-1.21-6.87-3.64-9.43-2.43-2.56-7.01-4.85-13.61-7.01l-19.54-6.06c-9.84-3.1-17.11-7.68-21.56-13.74-4.45-5.93-6.74-12.53-6.74-19.54,0-5.66,1.21-10.65,3.64-14.96,2.43-4.31,5.66-8.08,9.7-11.05,4.04-3.1,8.62-5.39,14.01-7.01,5.39-1.62,11.05-2.29,16.98-2.29,2.96,0,6.06.13,9.03.54,3.1.4,5.93.94,8.76,1.48,2.7.67,5.26,1.35,7.68,2.16,2.43.81,4.31,1.62,5.66,2.43,1.89,1.08,3.23,2.16,4.04,3.37.81,1.08,1.21,2.56,1.21,4.45v6.33c0,2.83-1.08,4.31-3.1,4.31-1.08,0-2.83-.54-5.12-1.62-7.68-3.5-16.3-5.26-25.87-5.26-7.68,0-13.74,1.21-17.92,3.77-4.18,2.56-6.33,6.47-6.33,11.99,0,3.77,1.35,7.01,4.04,9.57,2.7,2.56,7.68,5.12,14.82,7.41l19.13,6.06c9.7,3.1,16.71,7.41,20.89,12.94,4.18,5.52,6.2,11.86,6.2,18.87,0,5.79-1.21,11.05-3.5,15.63-2.43,4.58-5.66,8.62-9.84,11.86-4.18,3.37-9.16,5.79-14.96,7.55-6.06,1.89-12.4,2.83-19.27,2.83Z"/>
  <path class="st0" d="M368.29,196.94c-44.33,32.74-108.74,50.13-164.13,50.13-77.62,0-147.55-28.7-200.37-76.4-4.18-3.77-.4-8.89,4.58-5.93,57.13,33.15,127.61,53.23,200.51,53.23,49.18,0,103.22-10.24,152.94-31.26,7.41-3.37,13.74,4.85,6.47,10.24Z"/>
  <path class="st0" d="M386.75,175.92c-5.66-7.28-37.46-3.5-51.88-1.75-4.31.54-4.99-3.23-1.08-6.06,25.33-17.79,66.97-12.67,71.82-6.74,4.85,6.06-1.35,47.7-25.06,67.64-3.64,3.1-7.14,1.48-5.52-2.56,5.39-13.34,17.38-43.39,11.72-50.53Z"/>
</svg>