<?xml version="1.0" encoding="UTF-8"?>
<svg id="Layer_1" xmlns="http://www.w3.org/2000/svg" version="1.1" xmlns:xlink="http://www.w3.org/1999/xlink" viewBox="0 0 753.15 251.86">
  <!-- Generator: Adobe Illustrator 29.5.0, SVG Export Plug-In . SVG Version: 2.1.0 Build 137)  -->
  <defs>
    <style>
      .st0 {
        fill: url(#radial-gradient);
      }

      .st1 {
        fill: url(#radial-gradient1);
      }

      .st2 {
        fill: url(#radial-gradient2);
      }

      .st3 {
        fill: url(#radial-gradient4);
      }

      .st4 {
        fill: url(#radial-gradient3);
      }

      .st5 {
        fill: url(#linear-gradient);
      }
    </style>
    <linearGradient id="linear-gradient" x1="739.56" y1="1120.16" x2="121.14" y2="972.99" gradientTransform="translate(0 -870.97)" gradientUnits="userSpaceOnUse">
      <stop offset="0" stop-color="#7d2ae7"/>
      <stop offset=".77" stop-color="#7d2ae7"/>
      <stop offset="1" stop-color="#7d2ae7" stop-opacity="0"/>
    </linearGradient>
    <radialGradient id="radial-gradient" cx="-113.9" cy="396.31" fx="-113.9" fy="396.31" r=".37" gradientTransform="translate(-65556.71 -159552.82) rotate(-45.81) scale(602.52 400.42)" gradientUnits="userSpaceOnUse">
      <stop offset="0" stop-color="#6420ff"/>
      <stop offset="1" stop-color="#6420ff" stop-opacity="0"/>
    </radialGradient>
    <radialGradient id="radial-gradient1" cx="-113.16" cy="397.41" fx="-113.16" fy="397.41" r=".37" gradientTransform="translate(165135 -358019.87) rotate(5.09) scale(1172.62 934.6)" gradientUnits="userSpaceOnUse">
      <stop offset=".25" stop-color="#00c4cc"/>
      <stop offset="1" stop-color="#00c4cc" stop-opacity="0"/>
    </radialGradient>
    <radialGradient id="radial-gradient2" cx="-113.75" cy="396.8" fx="-113.75" fy="396.8" r=".37" gradientTransform="translate(-61343.02 -213341.83) rotate(-38.85) scale(755.65 516.69)" xlink:href="#radial-gradient"/>
    <radialGradient id="radial-gradient3" cx="-113.21" cy="397.24" fx="-113.21" fy="397.24" r=".37" gradientTransform="translate(-52260.49 -253607.42) rotate(-34.27) scale(880.91 602.34)" xlink:href="#radial-gradient"/>
    <radialGradient id="radial-gradient4" cx="-113.2" cy="397.39" fx="-113.2" fy="397.39" r=".37" gradientTransform="translate(375768.22 -785963.22) rotate(12.47) scale(1741.08 2135.37)" gradientUnits="userSpaceOnUse">
      <stop offset="0" stop-color="#00c4cc" stop-opacity=".73"/>
      <stop offset="0" stop-color="#00c4cc"/>
      <stop offset="1" stop-color="#00c4cc" stop-opacity="0"/>
    </radialGradient>
  </defs>
  <path class="st5" d="M742.56,169.51c-1.12,0-2.23.74-2.98,2.61-7.45,21.6-17.88,34.64-26.44,34.64-4.84,0-6.7-5.59-6.7-13.78,0-21.23,12.66-66.3,19-87.16.74-2.61,1.12-4.84,1.12-6.7,0-5.96-3.35-8.94-11.55-8.94s-18.25,3.35-27.19,19.37c-2.98-14.15-12.66-20.11-26.07-20.11-15.27,0-30.17,10.06-42.46,26.07-12.29,16.02-26.82,21.23-37.62,18.62,7.82-19,10.8-33.52,10.8-43.95,0-16.76-8.19-26.82-21.6-26.82-20.11,0-31.66,19.37-31.66,39.48,0,15.64,7.08,31.66,22.72,39.48-13.04,29.42-32.03,56.24-39.48,56.24-9.31,0-12.29-45.81-11.55-78.59.37-18.62,1.86-19.74,1.86-25.33,0-3.35-2.23-5.59-10.8-5.59-19.74,0-26.07,16.76-26.82,36.13-.37,7.45-1.49,14.53-3.35,21.6-8.19,29.42-25.33,52.14-36.5,52.14-5.21,0-6.7-5.21-6.7-11.92,0-21.23,11.92-48.05,11.92-70.77,0-16.76-7.45-27.19-21.23-27.19-16.39,0-37.62,19.37-58.1,55.5,6.7-27.56,9.31-54.38-10.43-54.38-4.47,0-8.57,1.12-12.29,3.35-2.61,1.12-4.1,3.72-4.1,6.7,1.86,29.42-23.84,105.03-48.05,105.03-4.47,0-6.7-4.84-6.7-12.66,0-21.23,12.66-66.3,19-87.16.74-2.61,1.12-4.84,1.12-7.08,0-5.59-3.35-8.57-11.55-8.57s-18.25,3.35-27.19,19.37c-3.35-14.15-12.66-20.11-26.07-20.11-21.98,0-46.18,23.09-56.99,53.26-14.53,40.23-43.21,79.33-82.31,79.33-35.38,0-54.01-29.42-54.01-75.98,0-67.41,49.54-122.17,86.04-122.17,17.51,0,25.7,11.17,25.7,28.31,0,20.86-11.55,30.17-11.55,38.36,0,2.23,1.86,4.84,5.96,4.84,16.02,0,34.64-18.62,34.64-44.32S162.27,6.74,125.77,6.74C65.06,6.74,4.35,67.45,4.35,145.67c0,62.2,30.54,99.45,83.43,99.45,36.13,0,67.79-27.93,84.55-60.71,1.86,27.19,14.15,41.34,33.15,41.34,16.76,0,30.17-10.06,40.6-27.56,4.1,18.25,14.53,27.19,28.31,27.19,15.64,0,29.05-10.06,41.34-28.31,0,14.53,2.98,28.31,15.64,28.31,5.96,0,13.04-1.49,14.15-6.7,13.41-54.75,46.18-99.82,56.24-99.82,2.98,0,3.72,2.98,3.72,6.33,0,14.9-10.43,45.44-10.43,64.81,0,21.23,8.94,35.01,27.56,35.01,20.49,0,41.34-24.95,55.12-61.83,4.47,34.27,13.78,61.83,28.31,61.83,17.88,0,50.28-37.99,69.65-78.22,7.45,1.12,19,.74,30.17-7.08-4.84,11.92-7.45,24.95-7.45,37.62,0,37.25,17.88,47.67,33.15,47.67,16.76,0,30.17-10.06,40.6-27.56,3.35,15.64,12.29,27.19,28.31,27.19,24.95,0,46.93-25.7,46.93-46.93.37-4.47-2.23-8.19-4.84-8.19ZM221.12,204.89c-10.06,0-14.15-10.06-14.15-25.33,0-26.44,18.25-70.77,37.25-70.77,8.19,0,11.55,9.68,11.55,21.98,0,26.82-17.13,74.12-34.64,74.12ZM568.63,125.93c-5.96-7.08-8.19-17.13-8.19-25.7,0-10.8,4.1-19.74,8.57-19.74s6.33,4.47,6.33,11.17c-.37,10.43-4.1,26.44-6.7,34.27ZM647.21,204.89c-10.06,0-14.15-11.92-14.15-25.33,0-25.7,18.25-70.77,37.25-70.77,8.19,0,11.17,9.68,11.17,21.98.37,26.82-16.39,74.12-34.27,74.12Z"/>
  <path class="st0" d="M742.56,169.51c-1.12,0-2.23.74-2.98,2.61-7.45,21.6-17.88,34.64-26.44,34.64-4.84,0-6.7-5.59-6.7-13.78,0-21.23,12.66-66.3,19-87.16.74-2.61,1.12-4.84,1.12-6.7,0-5.96-3.35-8.94-11.55-8.94s-18.25,3.35-27.19,19.37c-2.98-14.15-12.66-20.11-26.07-20.11-15.27,0-30.17,10.06-42.46,26.07-12.29,16.02-26.82,21.23-37.62,18.62,7.82-19,10.8-33.52,10.8-43.95,0-16.76-8.19-26.82-21.6-26.82-20.11,0-31.66,19.37-31.66,39.48,0,15.64,7.08,31.66,22.72,39.48-13.04,29.42-32.03,56.24-39.48,56.24-9.31,0-12.29-45.81-11.55-78.59.37-18.62,1.86-19.74,1.86-25.33,0-3.35-2.23-5.59-10.8-5.59-19.74,0-26.07,16.76-26.82,36.13-.37,7.45-1.49,14.53-3.35,21.6-8.19,29.42-25.33,52.14-36.5,52.14-5.21,0-6.7-5.21-6.7-11.92,0-21.23,11.92-48.05,11.92-70.77,0-16.76-7.45-27.19-21.23-27.19-16.39,0-37.62,19.37-58.1,55.5,6.7-27.56,9.31-54.38-10.43-54.38-4.47,0-8.57,1.12-12.29,3.35-2.61,1.12-4.1,3.72-4.1,6.7,1.86,29.42-23.84,105.03-48.05,105.03-4.47,0-6.7-4.84-6.7-12.66,0-21.23,12.66-66.3,19-87.16.74-2.61,1.12-4.84,1.12-7.08,0-5.59-3.35-8.57-11.55-8.57s-18.25,3.35-27.19,19.37c-3.35-14.15-12.66-20.11-26.07-20.11-21.98,0-46.18,23.09-56.99,53.26-14.53,40.23-43.21,79.33-82.31,79.33-35.38,0-54.01-29.42-54.01-75.98,0-67.41,49.54-122.17,86.04-122.17,17.51,0,25.7,11.17,25.7,28.31,0,20.86-11.55,30.17-11.55,38.36,0,2.23,1.86,4.84,5.96,4.84,16.02,0,34.64-18.62,34.64-44.32S162.27,6.74,125.77,6.74C65.06,6.74,4.35,67.45,4.35,145.67c0,62.2,30.54,99.45,83.43,99.45,36.13,0,67.79-27.93,84.55-60.71,1.86,27.19,14.15,41.34,33.15,41.34,16.76,0,30.17-10.06,40.6-27.56,4.1,18.25,14.53,27.19,28.31,27.19,15.64,0,29.05-10.06,41.34-28.31,0,14.53,2.98,28.31,15.64,28.31,5.96,0,13.04-1.49,14.15-6.7,13.41-54.75,46.18-99.82,56.24-99.82,2.98,0,3.72,2.98,3.72,6.33,0,14.9-10.43,45.44-10.43,64.81,0,21.23,8.94,35.01,27.56,35.01,20.49,0,41.34-24.95,55.12-61.83,4.47,34.27,13.78,61.83,28.31,61.83,17.88,0,50.28-37.99,69.65-78.22,7.45,1.12,19,.74,30.17-7.08-4.84,11.92-7.45,24.95-7.45,37.62,0,37.25,17.88,47.67,33.15,47.67,16.76,0,30.17-10.06,40.6-27.56,3.35,15.64,12.29,27.19,28.31,27.19,24.95,0,46.93-25.7,46.93-46.93.37-4.47-2.23-8.19-4.84-8.19ZM221.12,204.89c-10.06,0-14.15-10.06-14.15-25.33,0-26.44,18.25-70.77,37.25-70.77,8.19,0,11.55,9.68,11.55,21.98,0,26.82-17.13,74.12-34.64,74.12ZM568.63,125.93c-5.96-7.08-8.19-17.13-8.19-25.7,0-10.8,4.1-19.74,8.57-19.74s6.33,4.47,6.33,11.17c-.37,10.43-4.1,26.44-6.7,34.27ZM647.21,204.89c-10.06,0-14.15-11.92-14.15-25.33,0-25.7,18.25-70.77,37.25-70.77,8.19,0,11.17,9.68,11.17,21.98.37,26.82-16.39,74.12-34.27,74.12Z"/>
  <path class="st1" d="M742.56,169.51c-1.12,0-2.23.74-2.98,2.61-7.45,21.6-17.88,34.64-26.44,34.64-4.84,0-6.7-5.59-6.7-13.78,0-21.23,12.66-66.3,19-87.16.74-2.61,1.12-4.84,1.12-6.7,0-5.96-3.35-8.94-11.55-8.94s-18.25,3.35-27.19,19.37c-2.98-14.15-12.66-20.11-26.07-20.11-15.27,0-30.17,10.06-42.46,26.07-12.29,16.02-26.82,21.23-37.62,18.62,7.82-19,10.8-33.52,10.8-43.95,0-16.76-8.19-26.82-21.6-26.82-20.11,0-31.66,19.37-31.66,39.48,0,15.64,7.08,31.66,22.72,39.48-13.04,29.42-32.03,56.24-39.48,56.24-9.31,0-12.29-45.81-11.55-78.59.37-18.62,1.86-19.74,1.86-25.33,0-3.35-2.23-5.59-10.8-5.59-19.74,0-26.07,16.76-26.82,36.13-.37,7.45-1.49,14.53-3.35,21.6-8.19,29.42-25.33,52.14-36.5,52.14-5.21,0-6.7-5.21-6.7-11.92,0-21.23,11.92-48.05,11.92-70.77,0-16.76-7.45-27.19-21.23-27.19-16.39,0-37.62,19.37-58.1,55.5,6.7-27.56,9.31-54.38-10.43-54.38-4.47,0-8.57,1.12-12.29,3.35-2.61,1.12-4.1,3.72-4.1,6.7,1.86,29.42-23.84,105.03-48.05,105.03-4.47,0-6.7-4.84-6.7-12.66,0-21.23,12.66-66.3,19-87.16.74-2.61,1.12-4.84,1.12-7.08,0-5.59-3.35-8.57-11.55-8.57s-18.25,3.35-27.19,19.37c-3.35-14.15-12.66-20.11-26.07-20.11-21.98,0-46.18,23.09-56.99,53.26-14.53,40.23-43.21,79.33-82.31,79.33-35.38,0-54.01-29.42-54.01-75.98,0-67.41,49.54-122.17,86.04-122.17,17.51,0,25.7,11.17,25.7,28.31,0,20.86-11.55,30.17-11.55,38.36,0,2.23,1.86,4.84,5.96,4.84,16.02,0,34.64-18.62,34.64-44.32S162.27,6.74,125.77,6.74C65.06,6.74,4.35,67.45,4.35,145.67c0,62.2,30.54,99.45,83.43,99.45,36.13,0,67.79-27.93,84.55-60.71,1.86,27.19,14.15,41.34,33.15,41.34,16.76,0,30.17-10.06,40.6-27.56,4.1,18.25,14.53,27.19,28.31,27.19,15.64,0,29.05-10.06,41.34-28.31,0,14.53,2.98,28.31,15.64,28.31,5.96,0,13.04-1.49,14.15-6.7,13.41-54.75,46.18-99.82,56.24-99.82,2.98,0,3.72,2.98,3.72,6.33,0,14.9-10.43,45.44-10.43,64.81,0,21.23,8.94,35.01,27.56,35.01,20.49,0,41.34-24.95,55.12-61.83,4.47,34.27,13.78,61.83,28.31,61.83,17.88,0,50.28-37.99,69.65-78.22,7.45,1.12,19,.74,30.17-7.08-4.84,11.92-7.45,24.95-7.45,37.62,0,37.25,17.88,47.67,33.15,47.67,16.76,0,30.17-10.06,40.6-27.56,3.35,15.64,12.29,27.19,28.31,27.19,24.95,0,46.93-25.7,46.93-46.93.37-4.47-2.23-8.19-4.84-8.19ZM221.12,204.89c-10.06,0-14.15-10.06-14.15-25.33,0-26.44,18.25-70.77,37.25-70.77,8.19,0,11.55,9.68,11.55,21.98,0,26.82-17.13,74.12-34.64,74.12ZM568.63,125.93c-5.96-7.08-8.19-17.13-8.19-25.7,0-10.8,4.1-19.74,8.57-19.74s6.33,4.47,6.33,11.17c-.37,10.43-4.1,26.44-6.7,34.27ZM647.21,204.89c-10.06,0-14.15-11.92-14.15-25.33,0-25.7,18.25-70.77,37.25-70.77,8.19,0,11.17,9.68,11.17,21.98.37,26.82-16.39,74.12-34.27,74.12Z"/>
  <path class="st2" d="M742.56,169.51c-1.12,0-2.23.74-2.98,2.61-7.45,21.6-17.88,34.64-26.44,34.64-4.84,0-6.7-5.59-6.7-13.78,0-21.23,12.66-66.3,19-87.16.74-2.61,1.12-4.84,1.12-6.7,0-5.96-3.35-8.94-11.55-8.94s-18.25,3.35-27.19,19.37c-2.98-14.15-12.66-20.11-26.07-20.11-15.27,0-30.17,10.06-42.46,26.07-12.29,16.02-26.82,21.23-37.62,18.62,7.82-19,10.8-33.52,10.8-43.95,0-16.76-8.19-26.82-21.6-26.82-20.11,0-31.66,19.37-31.66,39.48,0,15.64,7.08,31.66,22.72,39.48-13.04,29.42-32.03,56.24-39.48,56.24-9.31,0-12.29-45.81-11.55-78.59.37-18.62,1.86-19.74,1.86-25.33,0-3.35-2.23-5.59-10.8-5.59-19.74,0-26.07,16.76-26.82,36.13-.37,7.45-1.49,14.53-3.35,21.6-8.19,29.42-25.33,52.14-36.5,52.14-5.21,0-6.7-5.21-6.7-11.92,0-21.23,11.92-48.05,11.92-70.77,0-16.76-7.45-27.19-21.23-27.19-16.39,0-37.62,19.37-58.1,55.5,6.7-27.56,9.31-54.38-10.43-54.38-4.47,0-8.57,1.12-12.29,3.35-2.61,1.12-4.1,3.72-4.1,6.7,1.86,29.42-23.84,105.03-48.05,105.03-4.47,0-6.7-4.84-6.7-12.66,0-21.23,12.66-66.3,19-87.16.74-2.61,1.12-4.84,1.12-7.08,0-5.59-3.35-8.57-11.55-8.57s-18.25,3.35-27.19,19.37c-3.35-14.15-12.66-20.11-26.07-20.11-21.98,0-46.18,23.09-56.99,53.26-14.53,40.23-43.21,79.33-82.31,79.33-35.38,0-54.01-29.42-54.01-75.98,0-67.41,49.54-122.17,86.04-122.17,17.51,0,25.7,11.17,25.7,28.31,0,20.86-11.55,30.17-11.55,38.36,0,2.23,1.86,4.84,5.96,4.84,16.02,0,34.64-18.62,34.64-44.32S162.27,6.74,125.77,6.74C65.06,6.74,4.35,67.45,4.35,145.67c0,62.2,30.54,99.45,83.43,99.45,36.13,0,67.79-27.93,84.55-60.71,1.86,27.19,14.15,41.34,33.15,41.34,16.76,0,30.17-10.06,40.6-27.56,4.1,18.25,14.53,27.19,28.31,27.19,15.64,0,29.05-10.06,41.34-28.31,0,14.53,2.98,28.31,15.64,28.31,5.96,0,13.04-1.49,14.15-6.7,13.41-54.75,46.18-99.82,56.24-99.82,2.98,0,3.72,2.98,3.72,6.33,0,14.9-10.43,45.44-10.43,64.81,0,21.23,8.94,35.01,27.56,35.01,20.49,0,41.34-24.95,55.12-61.83,4.47,34.27,13.78,61.83,28.31,61.83,17.88,0,50.28-37.99,69.65-78.22,7.45,1.12,19,.74,30.17-7.08-4.84,11.92-7.45,24.95-7.45,37.62,0,37.25,17.88,47.67,33.15,47.67,16.76,0,30.17-10.06,40.6-27.56,3.35,15.64,12.29,27.19,28.31,27.19,24.95,0,46.93-25.7,46.93-46.93.37-4.47-2.23-8.19-4.84-8.19ZM221.12,204.89c-10.06,0-14.15-10.06-14.15-25.33,0-26.44,18.25-70.77,37.25-70.77,8.19,0,11.55,9.68,11.55,21.98,0,26.82-17.13,74.12-34.64,74.12ZM568.63,125.93c-5.96-7.08-8.19-17.13-8.19-25.7,0-10.8,4.1-19.74,8.57-19.74s6.33,4.47,6.33,11.17c-.37,10.43-4.1,26.44-6.7,34.27ZM647.21,204.89c-10.06,0-14.15-11.92-14.15-25.33,0-25.7,18.25-70.77,37.25-70.77,8.19,0,11.17,9.68,11.17,21.98.37,26.82-16.39,74.12-34.27,74.12Z"/>
  <path class="st4" d="M742.56,169.51c-1.12,0-2.23.74-2.98,2.61-7.45,21.6-17.88,34.64-26.44,34.64-4.84,0-6.7-5.59-6.7-13.78,0-21.23,12.66-66.3,19-87.16.74-2.61,1.12-4.84,1.12-6.7,0-5.96-3.35-8.94-11.55-8.94s-18.25,3.35-27.19,19.37c-2.98-14.15-12.66-20.11-26.07-20.11-15.27,0-30.17,10.06-42.46,26.07-12.29,16.02-26.82,21.23-37.62,18.62,7.82-19,10.8-33.52,10.8-43.95,0-16.76-8.19-26.82-21.6-26.82-20.11,0-31.66,19.37-31.66,39.48,0,15.64,7.08,31.66,22.72,39.48-13.04,29.42-32.03,56.24-39.48,56.24-9.31,0-12.29-45.81-11.55-78.59.37-18.62,1.86-19.74,1.86-25.33,0-3.35-2.23-5.59-10.8-5.59-19.74,0-26.07,16.76-26.82,36.13-.37,7.45-1.49,14.53-3.35,21.6-8.19,29.42-25.33,52.14-36.5,52.14-5.21,0-6.7-5.21-6.7-11.92,0-21.23,11.92-48.05,11.92-70.77,0-16.76-7.45-27.19-21.23-27.19-16.39,0-37.62,19.37-58.1,55.5,6.7-27.56,9.31-54.38-10.43-54.38-4.47,0-8.57,1.12-12.29,3.35-2.61,1.12-4.1,3.72-4.1,6.7,1.86,29.42-23.84,105.03-48.05,105.03-4.47,0-6.7-4.84-6.7-12.66,0-21.23,12.66-66.3,19-87.16.74-2.61,1.12-4.84,1.12-7.08,0-5.59-3.35-8.57-11.55-8.57s-18.25,3.35-27.19,19.37c-3.35-14.15-12.66-20.11-26.07-20.11-21.98,0-46.18,23.09-56.99,53.26-14.53,40.23-43.21,79.33-82.31,79.33-35.38,0-54.01-29.42-54.01-75.98,0-67.41,49.54-122.17,86.04-122.17,17.51,0,25.7,11.17,25.7,28.31,0,20.86-11.55,30.17-11.55,38.36,0,2.23,1.86,4.84,5.96,4.84,16.02,0,34.64-18.62,34.64-44.32S162.27,6.74,125.77,6.74C65.06,6.74,4.35,67.45,4.35,145.67c0,62.2,30.54,99.45,83.43,99.45,36.13,0,67.79-27.93,84.55-60.71,1.86,27.19,14.15,41.34,33.15,41.34,16.76,0,30.17-10.06,40.6-27.56,4.1,18.25,14.53,27.19,28.31,27.19,15.64,0,29.05-10.06,41.34-28.31,0,14.53,2.98,28.31,15.64,28.31,5.96,0,13.04-1.49,14.15-6.7,13.41-54.75,46.18-99.82,56.24-99.82,2.98,0,3.72,2.98,3.72,6.33,0,14.9-10.43,45.44-10.43,64.81,0,21.23,8.94,35.01,27.56,35.01,20.49,0,41.34-24.95,55.12-61.83,4.47,34.27,13.78,61.83,28.31,61.83,17.88,0,50.28-37.99,69.65-78.22,7.45,1.12,19,.74,30.17-7.08-4.84,11.92-7.45,24.95-7.45,37.62,0,37.25,17.88,47.67,33.15,47.67,16.76,0,30.17-10.06,40.6-27.56,3.35,15.64,12.29,27.19,28.31,27.19,24.95,0,46.93-25.7,46.93-46.93.37-4.47-2.23-8.19-4.84-8.19ZM221.12,204.89c-10.06,0-14.15-10.06-14.15-25.33,0-26.44,18.25-70.77,37.25-70.77,8.19,0,11.55,9.68,11.55,21.98,0,26.82-17.13,74.12-34.64,74.12ZM568.63,125.93c-5.96-7.08-8.19-17.13-8.19-25.7,0-10.8,4.1-19.74,8.57-19.74s6.33,4.47,6.33,11.17c-.37,10.43-4.1,26.44-6.7,34.27ZM647.21,204.89c-10.06,0-14.15-11.92-14.15-25.33,0-25.7,18.25-70.77,37.25-70.77,8.19,0,11.17,9.68,11.17,21.98.37,26.82-16.39,74.12-34.27,74.12Z"/>
  <path class="st3" d="M742.56,169.51c-1.12,0-2.23.74-2.98,2.61-7.45,21.6-17.88,34.64-26.44,34.64-4.84,0-6.7-5.59-6.7-13.78,0-21.23,12.66-66.3,19-87.16.74-2.61,1.12-4.84,1.12-6.7,0-5.96-3.35-8.94-11.55-8.94s-18.25,3.35-27.19,19.37c-2.98-14.15-12.66-20.11-26.07-20.11-15.27,0-30.17,10.06-42.46,26.07-12.29,16.02-26.82,21.23-37.62,18.62,7.82-19,10.8-33.52,10.8-43.95,0-16.76-8.19-26.82-21.6-26.82-20.11,0-31.66,19.37-31.66,39.48,0,15.64,7.08,31.66,22.72,39.48-13.04,29.42-32.03,56.24-39.48,56.24-9.31,0-12.29-45.81-11.55-78.59.37-18.62,1.86-19.74,1.86-25.33,0-3.35-2.23-5.59-10.8-5.59-19.74,0-26.07,16.76-26.82,36.13-.37,7.45-1.49,14.53-3.35,21.6-8.19,29.42-25.33,52.14-36.5,52.14-5.21,0-6.7-5.21-6.7-11.92,0-21.23,11.92-48.05,11.92-70.77,0-16.76-7.45-27.19-21.23-27.19-16.39,0-37.62,19.37-58.1,55.5,6.7-27.56,9.31-54.38-10.43-54.38-4.47,0-8.57,1.12-12.29,3.35-2.61,1.12-4.1,3.72-4.1,6.7,1.86,29.42-23.84,105.03-48.05,105.03-4.47,0-6.7-4.84-6.7-12.66,0-21.23,12.66-66.3,19-87.16.74-2.61,1.12-4.84,1.12-7.08,0-5.59-3.35-8.57-11.55-8.57s-18.25,3.35-27.19,19.37c-3.35-14.15-12.66-20.11-26.07-20.11-21.98,0-46.18,23.09-56.99,53.26-14.53,40.23-43.21,79.33-82.31,79.33-35.38,0-54.01-29.42-54.01-75.98,0-67.41,49.54-122.17,86.04-122.17,17.51,0,25.7,11.17,25.7,28.31,0,20.86-11.55,30.17-11.55,38.36,0,2.23,1.86,4.84,5.96,4.84,16.02,0,34.64-18.62,34.64-44.32S162.27,6.74,125.77,6.74C65.06,6.74,4.35,67.45,4.35,145.67c0,62.2,30.54,99.45,83.43,99.45,36.13,0,67.79-27.93,84.55-60.71,1.86,27.19,14.15,41.34,33.15,41.34,16.76,0,30.17-10.06,40.6-27.56,4.1,18.25,14.53,27.19,28.31,27.19,15.64,0,29.05-10.06,41.34-28.31,0,14.53,2.98,28.31,15.64,28.31,5.96,0,13.04-1.49,14.15-6.7,13.41-54.75,46.18-99.82,56.24-99.82,2.98,0,3.72,2.98,3.72,6.33,0,14.9-10.43,45.44-10.43,64.81,0,21.23,8.94,35.01,27.56,35.01,20.49,0,41.34-24.95,55.12-61.83,4.47,34.27,13.78,61.83,28.31,61.83,17.88,0,50.28-37.99,69.65-78.22,7.45,1.12,19,.74,30.17-7.08-4.84,11.92-7.45,24.95-7.45,37.62,0,37.25,17.88,47.67,33.15,47.67,16.76,0,30.17-10.06,40.6-27.56,3.35,15.64,12.29,27.19,28.31,27.19,24.95,0,46.93-25.7,46.93-46.93.37-4.47-2.23-8.19-4.84-8.19ZM221.12,204.89c-10.06,0-14.15-10.06-14.15-25.33,0-26.44,18.25-70.77,37.25-70.77,8.19,0,11.55,9.68,11.55,21.98,0,26.82-17.13,74.12-34.64,74.12ZM568.63,125.93c-5.96-7.08-8.19-17.13-8.19-25.7,0-10.8,4.1-19.74,8.57-19.74s6.33,4.47,6.33,11.17c-.37,10.43-4.1,26.44-6.7,34.27ZM647.21,204.89c-10.06,0-14.15-11.92-14.15-25.33,0-25.7,18.25-70.77,37.25-70.77,8.19,0,11.17,9.68,11.17,21.98.37,26.82-16.39,74.12-34.27,74.12Z"/>
</svg>