<?xml version="1.0" encoding="UTF-8"?>
<svg id="Layer_1" xmlns="http://www.w3.org/2000/svg" version="1.1" viewBox="0 0 952.4 251.86">
  <!-- Generator: Adobe Illustrator 29.5.0, SVG Export Plug-In . SVG Version: 2.1.0 Build 137)  -->
  <defs>
    <style>
      .st0 {
        fill: #2396ed;
      }
    </style>
  </defs>
  <path class="st0" d="M261.76,53.46l7.16,5.19c12.46,10.05,19.62,21.39,21.18,34.36,13.39-2.59,30.52-.65,38,4.54l6.85,4.21-1.25,2.59c-2.18,4.86-2.8,6.16-3.11,6.81-12.15,24.31-36.13,24.64-47.34,24.31-28.34,70.99-88.76,110.21-170.37,110.21-37.68,0-66.34-11.99-85.65-35.66C1.7,178.91,1.7,138.39,3.88,125.42l.62-2.59h225.18c11.83,0,20.87-3.24,25.23-5.83-4.67-7.13-6.23-15.23-6.54-19.77-.93-12.97,2.18-26.58,8.41-36.31l4.98-7.46ZM456.87,68.51c2.51,0,4.64.84,6.38,2.53,1.74,1.68,2.61,3.81,2.61,6.38v80.17c0,13.36-4.68,24.67-14.05,33.92-9.48,9.37-20.79,14.05-33.92,14.05-13.25,0-24.55-4.68-33.92-14.05-9.37-9.37-14.05-20.67-14.05-33.92,0-13.25,4.68-24.55,14.05-33.92,9.36-9.37,20.67-14.05,33.92-14.05,11.36,0,21.39,3.51,30.06,10.53v-42.74c0-2.57.84-4.7,2.53-6.38,1.68-1.68,3.81-2.53,6.38-2.53M524.03,109.63c13.13,0,24.44,4.68,33.92,14.05,4.68,4.68,8.18,9.85,10.49,15.5,2.31,5.65,3.5,11.79,3.56,18.42,0,13.36-4.68,24.67-14.05,33.92-9.48,9.37-20.78,14.05-33.92,14.05-13.25,0-24.55-4.68-33.92-14.05-9.37-9.37-14.05-20.67-14.05-33.92s4.68-24.55,14.05-33.92c9.37-9.37,20.67-14.05,33.92-14.05M629.99,109.63c12.05,0,22.47,3.88,31.26,11.65,2.06,1.83,3.08,4.08,3.08,6.77s-.84,4.71-2.53,6.42c-1.68,1.71-3.81,2.57-6.38,2.57-2.12.02-4.18-.71-5.82-2.06-2.91-2.46-5.97-4.31-9.17-5.57-3.2-1.26-6.68-1.88-10.45-1.88-4.17,0-8.08.79-11.73,2.36-3.58,1.52-6.83,3.7-9.59,6.42-2.76,2.73-4.95,5.98-6.47,9.55-1.57,3.65-2.36,7.56-2.36,11.73s.79,8.08,2.36,11.73c1.51,3.57,3.71,6.82,6.47,9.55,2.76,2.73,6.02,4.91,9.59,6.42,3.66,1.57,7.57,2.36,11.73,2.36,3.77,0,7.25-.61,10.45-1.84,3.2-1.23,6.22-3.07,9.08-5.53,1.6-1.2,3.48-1.83,5.65-1.88,2.57,0,4.7.84,6.38,2.53,1.68,1.68,2.53,3.81,2.53,6.38s-.94,4.71-2.83,6.59c-8.85,7.77-19.27,11.65-31.26,11.65-13.25,0-24.55-4.68-33.92-14.05-9.37-9.37-14.05-20.67-14.05-33.92s4.68-24.55,14.05-33.92c9.37-9.37,20.67-14.05,33.92-14.05M683.44,68.51c2.46,0,4.55.87,6.29,2.61,1.74,1.74,2.61,3.87,2.61,6.38v66.81l51.22-33.32c1.43-.91,3.03-1.37,4.8-1.37,1.26,0,2.43.23,3.51.68,1.09.46,2.03,1.1,2.83,1.93.8.83,1.44,1.79,1.93,2.87.49,1.09.73,2.23.73,3.42,0,3.2-1.14,5.57-3.43,7.11l-35.89,23.3,36.83,41.46c1.66,1.83,2.48,3.91,2.48,6.25,0,1.2-.24,2.34-.73,3.43-.47,1.06-1.12,2.03-1.93,2.87-.8.83-1.74,1.47-2.83,1.93-1.11.46-2.31.69-3.51.69-2.4,0-4.4-.77-6-2.31l-39.57-44.46-10.45,6.85v30.92c0,2.46-.87,4.57-2.61,6.34-1.74,1.77-3.84,2.66-6.29,2.66-2.51,0-4.64-.89-6.38-2.66-1.74-1.77-2.61-3.88-2.61-6.34v-119.06c0-2.51.87-4.64,2.61-6.38,1.74-1.74,3.87-2.61,6.38-2.61M815.01,109.63c13.13,0,24.44,4.68,33.92,14.05,4.68,4.63,8.19,9.78,10.54,15.46,2.34,5.68,3.51,11.83,3.51,18.46,0,2.57-.87,4.7-2.61,6.38-1.74,1.68-3.87,2.53-6.38,2.53h-67.84c.94,3.09,2.39,5.99,4.28,8.61,1.85,2.56,4.09,4.82,6.64,6.68,2.56,1.87,5.39,3.33,8.4,4.33,3.06,1.03,6.24,1.54,9.55,1.54,3.77,0,7.22-.57,10.36-1.71,3.14-1.14,6.05-2.85,8.74-5.14,1.65-1.4,3.74-2.19,5.91-2.23,2.57,0,4.7.84,6.38,2.53,1.68,1.68,2.53,3.81,2.53,6.38,0,2.51-.86,4.65-2.57,6.42-8.85,7.77-19.3,11.65-31.35,11.65-13.25,0-24.55-4.68-33.92-14.05-9.37-9.37-14.05-20.67-14.05-33.92s4.68-24.55,14.05-33.92c9.37-9.37,20.67-14.05,33.92-14.05M920.8,109.63c2.51,0,5.21.17,8.09.51,2.88.34,5.54.96,7.97,1.84,2.43.88,4.44,2.1,6.04,3.64,1.6,1.54,2.4,3.54,2.4,6,0,1.26-.24,2.43-.73,3.51-.47,1.06-1.12,2.03-1.93,2.87-.8.83-1.74,1.47-2.83,1.93-1.11.46-2.31.69-3.51.68-1.09,0-2.34-.31-3.77-.94-3.6-1.43-7.51-2.14-11.73-2.14s-8.08.79-11.73,2.36c-3.65,1.57-6.84,3.71-9.55,6.42-2.71,2.71-4.85,5.9-6.42,9.55-1.57,3.65-2.36,7.56-2.36,11.73v39.06c0,2.46-.87,4.55-2.61,6.29s-3.84,2.61-6.29,2.61c-2.51,0-4.64-.87-6.38-2.61-1.74-1.74-2.61-3.84-2.61-6.29v-78.12c0-2.46.87-4.55,2.61-6.29,1.74-1.74,3.87-2.61,6.38-2.61,2.46,0,4.55.87,6.29,2.61,1.74,1.74,2.61,3.84,2.61,6.29v1.71c4.19-3.37,8.91-6.03,13.96-7.88,5.02-1.83,10.39-2.74,16.1-2.74M417.9,127.53c-4.23,0-8.17.8-11.82,2.4s-6.82,3.75-9.51,6.47c-2.68,2.71-4.81,5.9-6.38,9.55-1.57,3.66-2.36,7.54-2.36,11.65,0,4.11.79,7.99,2.36,11.65s3.7,6.84,6.38,9.55c2.68,2.71,5.85,4.87,9.51,6.47,3.66,1.6,7.6,2.4,11.82,2.4,4.17,0,8.08-.8,11.73-2.4,3.57-1.54,6.81-3.75,9.55-6.51,2.72-2.75,4.9-5.99,6.42-9.55,1.57-3.63,2.36-7.49,2.36-11.61s-.79-7.98-2.36-11.61c-1.52-3.56-3.7-6.8-6.42-9.55-2.74-2.76-5.98-4.97-9.55-6.51-3.65-1.6-7.57-2.4-11.73-2.4M524.03,127.53c-4.23,0-8.17.8-11.82,2.4s-6.82,3.75-9.51,6.47c-2.68,2.71-4.81,5.9-6.38,9.55-1.57,3.66-2.36,7.54-2.36,11.65s.79,7.99,2.36,11.65c1.57,3.65,3.7,6.84,6.38,9.55,2.68,2.71,5.85,4.87,9.51,6.47,3.66,1.6,7.6,2.4,11.82,2.4s8.08-.8,11.73-2.4c3.57-1.54,6.81-3.75,9.55-6.51,2.72-2.75,4.9-5.99,6.42-9.55,1.57-3.63,2.36-7.49,2.36-11.61s-.79-7.98-2.36-11.61c-1.52-3.56-3.7-6.8-6.42-9.55-2.74-2.76-5.98-4.97-9.55-6.51-3.66-1.6-7.57-2.4-11.73-2.4M815.01,127.53c-3.26,0-6.42.51-9.51,1.54-3.03,1-5.89,2.46-8.48,4.32-2.57,1.86-4.83,4.11-6.68,6.68-1.89,2.6-3.31,5.52-4.2,8.61h57.73c-.95-3.09-2.41-6-4.32-8.61-1.87-2.56-4.12-4.81-6.68-6.68-2.56-1.87-5.39-3.32-8.39-4.32-3.05-1.03-6.25-1.55-9.47-1.54M63.05,83.93v32.42H28.79v-32.41h34.26ZM103.54,83.93v32.42h-34.26v-32.41h34.26ZM144.03,83.93v32.42h-34.26v-32.41h34.26ZM184.52,83.93v32.42h-34.26v-32.41h34.26ZM225.01,83.93v32.42h-34.26v-32.41h34.26ZM184.52,45.03v32.42h-34.26v-32.41h34.26ZM144.03,45.03v32.42h-34.26v-32.41h34.26ZM103.54,45.03v32.42h-34.26v-32.41h34.26ZM184.52,6.13v32.42h-34.26V6.13h34.26Z"/>
</svg>