<?xml version="1.0" encoding="UTF-8"?>
<svg id="Layer_1" xmlns="http://www.w3.org/2000/svg" version="1.1" viewBox="0 0 517.23 251.86">
  <!-- Generator: Adobe Illustrator 29.5.0, SVG Export Plug-In . SVG Version: 2.1.0 Build 137)  -->
  <defs>
    <style>
      .st0 {
        fill: #ff7262;
      }

      .st1 {
        fill: #a259ff;
      }

      .st2 {
        fill: #1abcfe;
      }

      .st3 {
        fill: #f24e1e;
      }

      .st4 {
        fill: #0acf83;
      }
    </style>
  </defs>
  <path class="st4" d="M45.32,245.54c22,0,39.86-17.86,39.86-39.86v-39.86h-39.86c-22,0-39.86,17.86-39.86,39.86s17.86,39.86,39.86,39.86Z"/>
  <path class="st1" d="M5.42,125.93c0-22,17.86-39.86,39.86-39.86h39.86v79.76h-39.86c-22,0-39.86-17.86-39.86-39.86v-.04Z"/>
  <path class="st3" d="M5.42,46.17C5.42,24.17,23.28,6.32,45.28,6.32h39.86v79.76h-39.86c-22,0-39.86-17.86-39.86-39.86v-.04Z"/>
  <path class="st0" d="M84.8,6.32h39.86c22,0,39.86,17.86,39.86,39.86s-17.86,39.86-39.86,39.86h-39.86V6.32Z"/>
  <path class="st2" d="M164.94,125.93c0,22-17.86,39.86-39.86,39.86s-40.28-17.86-40.28-39.86,17.86-39.86,39.86-39.86,39.86,17.86,39.86,39.86h.42Z"/>
  <path d="M208.52,72.4v83.56h10.75v-39.9h25.85v-10.37h-25.85v-22.84h33.58v-10.46h-44.33ZM272.29,89.38c3.89,0,7.03-3.14,7.03-7.03s-3.18-6.61-7.03-6.61-7.03,3.14-7.03,7.03c0,1.88.75,3.64,2.09,5.02,1.34,1.38,3.09,2.09,5.02,2.09l-.08-.5ZM266.86,99.92v56.04h10.33v-56.04h-10.66.33ZM317.55,98.24c-14.3,0-24.26,12.55-24.26,26.43s10.04,26.35,24.26,26.35c5.98.1,11.73-2.31,15.85-6.65v7.44c-.03,4.47-1.77,8.77-4.85,12-3.15,3.21-7.46,5.02-11.96,5.02-3.42-.11-6.73-1.21-9.54-3.18l-5.44,9.33c12.82,8.25,29.9,4.54,38.15-8.29,2.88-4.48,4.4-9.69,4.39-15.01v-51.86h-10.75v5.02c-4.12-4.34-9.87-6.75-15.85-6.65v.04ZM304.08,124.67c-.5-5.55,2.19-10.9,6.94-13.8,4.77-2.93,10.75-2.93,15.47,0,4.73,2.93,7.4,8.28,6.94,13.8.5,5.55-2.19,10.9-6.94,13.8-4.77,2.93-10.75,2.93-15.47,0-4.73-2.93-7.4-8.28-6.94-13.8Z"/>
  <path d="M382.92,109.2c-6.43.02-11.65,5.23-11.67,11.67v35.47h-10.75v-56.04h10.75v4.73c3.26-4.35,8.45-6.86,13.89-6.78,6.86-.17,13.26,3.51,16.65,9.49,4.18-5.86,10.2-9.41,16.73-9.49,12.25,0,19.87,9.87,19.91,22.08v35.67h-10.75v-35.55c.91-6.4-3.54-12.33-9.94-13.24-2.76-.39-5.56.21-7.91,1.7-3.84,2.5-5.86,7.01-5.19,11.54v35.47h-10.33v-35.42c-.02-6.43-5.23-11.65-11.67-11.67l.29.38ZM495.84,106.27c-4.94-5.16-11.8-8.05-18.95-7.99-16.02,0-27.18,13.55-27.18,29.28s11.29,29.28,27.18,29.28c7.15.06,14-2.83,18.95-7.99v6.36h10.75v-56.04h-10.75v7.11ZM460.29,128.02c-.54-6.69,2.72-13.13,8.45-16.65,5.73-3.51,12.55-3.51,18.65,0,5.7,3.54,8.96,9.96,8.45,16.65.54,6.69-2.72,13.13-8.45,16.65-5.73,3.51-12.55,3.51-18.65,0-5.7-3.54-8.96-9.96-8.45-16.65Z"/>
</svg>