<?xml version="1.0" encoding="UTF-8"?>
<svg id="Layer_1" xmlns="http://www.w3.org/2000/svg" version="1.1" viewBox="0 0 625.49 251.86">
  <!-- Generator: Adobe Illustrator 29.5.0, SVG Export Plug-In . SVG Version: 2.1.0 Build 137)  -->
  <defs>
    <style>
      .st0 {
        fill: #1b1f24;
      }

      .st1 {
        fill: #1b1f23;
        fill-rule: evenodd;
      }
    </style>
  </defs>
  <path class="st1" d="M126.91,3.68C58.54,3.68,3.16,59.06,3.16,127.43c0,54.76,35.42,101.01,84.62,117.41,6.19,1.08,8.51-2.63,8.51-5.88,0-2.94-.15-12.68-.15-23.05-31.09,5.72-39.14-7.58-41.61-14.54-1.39-3.56-7.43-14.54-12.68-17.48-4.33-2.32-10.52-8.04-.15-8.2,9.75-.15,16.71,8.97,19.03,12.68,11.14,18.72,28.93,13.46,36.04,10.21,1.08-8.04,4.33-13.46,7.89-16.55-27.53-3.09-56.31-13.77-56.31-61.1,0-13.46,4.8-24.6,12.68-33.26-1.24-3.09-5.57-15.78,1.24-32.79,0,0,10.36-3.25,34.03,12.68,9.9-2.78,20.42-4.18,30.94-4.18s21.04,1.39,30.94,4.18c23.67-16.09,34.03-12.68,34.03-12.68,6.81,17.02,2.48,29.7,1.24,32.79,7.89,8.66,12.68,19.65,12.68,33.26,0,47.49-28.93,58.01-56.46,61.1,4.49,3.87,8.35,11.29,8.35,22.89,0,16.55-.15,29.86-.15,34.03,0,3.25,2.32,7.12,8.51,5.88,48.88-16.4,84.31-62.8,84.31-117.41C250.66,59.06,195.28,3.68,126.91,3.68"/>
  <path class="st0" d="M417.62,155.22h-.14s0,.14.14,0M417.62,155.36c-.7,0-2.51.42-4.45.42-6.13,0-8.21-2.78-8.21-6.4v-24.36h12.39c.7,0,1.25-.56,1.25-1.53v-13.23c0-.7-.56-1.25-1.25-1.25h-12.39v-16.43c0-.56-.42-.97-1.11-.97h-16.71c-.7,0-1.11.42-1.11.97v16.85s-8.49,2.09-9.05,2.23-.97.7-.97,1.25v10.58c0,.84.56,1.53,1.25,1.53h8.63v25.48c0,18.93,13.23,20.88,22.27,20.88,4.18,0,9.05-1.25,9.88-1.67.42-.14.7-.7.7-1.25v-11.69c0-.7-.56-1.25-1.11-1.39M601.53,138.23c0-14.06-5.71-15.87-11.69-15.31-4.59.28-8.35,2.65-8.35,2.65v27.29s3.76,2.65,9.47,2.78c8.07.28,10.58-2.51,10.58-17.4M620.46,136.98c0,26.59-8.63,34.25-23.67,34.25-12.67,0-19.63-6.4-19.63-6.4,0,0-.28,3.62-.7,4.04-.28.42-.56.56-1.11.56h-11.56c-.84,0-1.53-.56-1.53-1.25l.14-86.32c0-.7.56-1.25,1.25-1.25h16.57c.7,0,1.25.56,1.25,1.25l-.14,29.1s6.4-4.18,15.73-4.18h.14c9.47.14,23.25,3.62,23.25,30.21M552.8,109h-16.29c-.84,0-1.25.56-1.25,1.53v42.18s-4.32,3.06-10.16,3.06-7.52-2.65-7.52-8.49v-36.89c0-.7-.56-1.25-1.25-1.25h-16.57c-.7,0-1.25.56-1.25,1.25v39.68c0,17.12,9.61,21.3,22.69,21.3,10.86,0,19.63-5.99,19.63-5.99,0,0,.42,3.06.56,3.48s.7.7,1.25.7h10.44c.84,0,1.25-.56,1.25-1.25l.14-58.05c-.28-.7-.84-1.25-1.67-1.25M368.75,108.86h-16.57c-.7,0-1.25.7-1.25,1.53v56.94c0,1.53.97,2.09,2.37,2.09h14.9c1.53,0,1.95-.7,1.95-2.09v-57.08c-.14-.7-.7-1.39-1.39-1.39M360.54,82.69c-5.99,0-10.72,4.73-10.72,10.72s4.73,10.72,10.72,10.72,10.58-4.73,10.58-10.72-4.73-10.72-10.58-10.72M488.62,80.74h-16.43c-.7,0-1.25.56-1.25,1.25v31.74h-25.76v-31.74c0-.7-.56-1.25-1.25-1.25h-16.57c-.7,0-1.25.56-1.25,1.25v86.32c0,.7.7,1.25,1.25,1.25h16.57c.7,0,1.25-.56,1.25-1.25v-36.89h25.76l-.14,36.89c0,.7.56,1.25,1.25,1.25h16.57c.7,0,1.25-.56,1.25-1.25v-86.32c0-.7-.56-1.25-1.25-1.25M342.02,118.88v44.55c0,.28-.14.84-.42.97,0,0-9.75,6.96-25.76,6.96-19.21,0-42.18-5.99-42.18-45.94s20.05-48.17,39.54-48.03c16.98,0,23.81,3.76,24.78,4.45.28.42.42.7.42,1.11l-3.2,13.78c0,.7-.7,1.53-1.53,1.25-2.78-.84-6.96-2.51-16.85-2.51-11.42,0-23.67,3.2-23.67,28.96s11.69,28.68,20.05,28.68c7.1,0,9.75-.84,9.75-.84v-17.68h-11.42c-.84,0-1.53-.56-1.53-1.25v-14.48c0-.7.56-1.25,1.53-1.25h29.1c.84,0,1.39.56,1.39,1.25"/>
</svg>