<?xml version="1.0" encoding="UTF-8"?>
<svg id="Layer_1" xmlns="http://www.w3.org/2000/svg" version="1.1" viewBox="0 0 768.47 251.86">
  <!-- Generator: Adobe Illustrator 29.5.0, SVG Export Plug-In . SVG Version: 2.1.0 Build 137)  -->
  <defs>
    <style>
      .st0 {
        fill: #20b15a;
      }

      .st1 {
        fill: #3686f7;
      }

      .st2 {
        fill: #ffba40;
      }

      .st3 {
        fill: #ff302f;
      }
    </style>
  </defs>
  <path class="st3" d="M732.34,153.11l20.89,13.92c-6.78,9.98-22.99,27.12-51.02,27.12-34.81,0-60.73-26.93-60.73-61.19,0-36.46,26.2-61.19,57.8-61.19s47.36,25.28,52.4,38.93l2.75,6.96-81.89,33.89c6.23,12.28,15.94,18.5,29.68,18.5s23.27-6.78,30.14-16.95M668.13,131.04l54.69-22.72c-3.02-7.6-12-13.01-22.72-13.01-13.65,0-32.61,12.09-31.97,35.73"/>
  <path class="st0" d="M601.99,9.39h26.38v179.18h-26.38V9.39Z"/>
  <path class="st1" d="M560.4,76.53h25.47v108.83c0,45.16-26.66,63.76-58.17,63.76-29.68,0-47.54-19.97-54.23-36.18l23.36-9.71c4.21,9.98,14.38,21.8,30.87,21.8,20.24,0,32.7-12.55,32.7-36v-8.79h-.92c-6.05,7.33-17.59,13.92-32.24,13.92-30.6,0-58.63-26.66-58.63-61.01s28.03-61.47,58.63-61.47c14.57,0,26.2,6.5,32.24,13.65h.92v-8.79ZM562.23,133.14c0-21.62-14.38-37.38-32.7-37.38s-34.08,15.76-34.08,37.38,15.57,36.82,34.08,36.82c18.32.09,32.7-15.48,32.7-36.82"/>
  <path class="st3" d="M323.79,132.69c0,35.27-27.48,61.19-61.19,61.19s-61.19-26.01-61.19-61.19,27.48-61.28,61.19-61.28,61.19,25.83,61.19,61.28M297.04,132.69c0-21.98-15.94-37.1-34.44-37.1s-34.44,15.12-34.44,37.1,15.94,37.1,34.44,37.1,34.44-15.3,34.44-37.1"/>
  <path class="st2" d="M457.44,132.96c0,35.27-27.48,61.19-61.19,61.19s-61.19-25.92-61.19-61.19,27.48-61.19,61.19-61.19,61.19,25.65,61.19,61.19M430.6,132.96c0-21.98-15.94-37.1-34.44-37.1s-34.44,15.12-34.44,37.1,15.94,37.1,34.44,37.1,34.44-15.39,34.44-37.1"/>
  <path class="st1" d="M100.83,167.31c-38.38,0-68.43-30.96-68.43-69.34S62.44,28.62,100.83,28.62c20.7,0,35.82,8.15,46.99,18.6l18.41-18.41c-15.57-14.93-36.37-26.29-65.41-26.29-52.58,0-96.83,42.87-96.83,95.45s44.25,95.45,96.83,95.45c28.4,0,49.83-9.34,66.6-26.75,17.22-17.22,22.53-41.41,22.53-61.01,0-6.14-.73-12.46-1.56-17.13h-87.57v25.47h62.38c-1.83,15.94-6.87,26.84-14.29,34.26-8.98,9.07-23.17,19.05-48.09,19.05"/>
</svg>