<?xml version="1.0" encoding="UTF-8"?>
<svg id="Layer_1" xmlns="http://www.w3.org/2000/svg" version="1.1" viewBox="0 0 1131.53 251.86">
  <!-- Generator: Adobe Illustrator 29.5.0, SVG Export Plug-In . SVG Version: 2.1.0 Build 137)  -->
  <defs>
    <style>
      .st0 {
        fill: #777;
      }

      .st1 {
        fill: #f25022;
      }

      .st2 {
        fill: #80ba01;
      }

      .st3 {
        fill: #ffb902;
      }

      .st4 {
        fill: #02a4ef;
      }
    </style>
  </defs>
  <g>
    <path class="st0" d="M1023.84,54.57c10.44-6.79,23.92-7.42,35.68-4.19.1,6.99.01,13.99.05,20.98-5.59-2.46-12.16-4.07-18.04-1.65-4.66,1.85-7.44,6.64-8.17,11.42-.88,6.07-.31,12.22-.46,18.33,11.94.03,23.88,0,35.82.01.09-7.75-.1-15.51.1-23.26,8.12-2.31,16.15-4.9,24.22-7.34.07,10.21-.1,20.43.09,30.65,8.07-.12,16.15-.03,24.22-.05v19.88c-8.1-.33-16.22-.09-24.32-.12.03,11.43,0,22.86.01,34.29.13,6.33-.34,12.69.4,19,.45,3.72,1.8,7.84,5.29,9.76,5.84,3.27,13.25,1.84,18.62-1.75v20.08c-7,3.04-14.82,3.96-22.38,3.43-7.18-.53-14.62-3.14-19.3-8.85-5.41-6.45-6.81-15.19-6.91-23.36-.06-17.54,0-35.08-.03-52.63-11.95,0-23.89-.01-35.83,0-.01,27.53,0,55.06,0,82.59h-24.48c0-27.52-.03-55.04.01-82.56-5.68-.11-11.36.03-17.04-.09.02-6.53.05-13.07-.01-19.62,5.65-.13,11.31-.07,16.97-.03.41-8.69-.91-17.63,1.69-26.09,2.2-7.64,7.08-14.54,13.81-18.85h0Z"/>
    <path class="st0" d="M499.65,56c4.94-.75,10.28.94,13.55,4.8,3.83,4.23,4.54,10.96,1.7,15.9-3.14,5.58-10.17,8.17-16.3,6.83-6.36-1.14-11.65-7.05-11.37-13.64-.18-6.93,5.62-13.12,12.41-13.89h0Z"/>
    <path class="st0" d="M312.01,59.03h35.61c11.08,28.14,22.25,56.25,33.34,84.4,2.84,7.04,5.49,14.16,8.46,21.14,14.26-35.16,28.72-70.24,42.87-105.45,11.42-.18,22.84-.04,34.26-.07-.03,47.59-.01,95.17,0,142.76-8.24-.02-16.47.07-24.71-.05.09-35.12,0-70.23.04-105.36.01-1.58-.04-3.15-.15-4.73-.48.73-.91,1.5-1.29,2.28-14.15,35.95-28.57,71.79-42.64,107.77-5.86.21-11.73.01-17.6.11-14.6-35.95-29.01-71.97-43.53-107.95-.38-.75-.79-1.48-1.23-2.18-.3,15.39-.05,30.79-.13,46.17,0,21.31-.01,42.62,0,63.92-7.77.02-15.54,0-23.31,0,0-47.59-.01-95.19,0-142.78h0Z"/>
    <path class="st0" d="M567.02,99.38c11.82-3.37,24.56-3.23,36.37.11,2.43.68,4.79,1.62,6.98,2.91-.14,7.8,0,15.6-.07,23.41-7.89-6.03-17.91-9.85-27.94-8.59-7.97.72-15.57,4.85-20.34,11.29-6.13,7.98-7.54,18.58-6.49,28.35.79,7.64,3.95,15.28,9.89,20.34,6.17,5.49,14.83,7.43,22.91,6.82,7.98-.92,15.52-4.3,21.97-9.02.07,7.39-.03,14.78.05,22.17-10.01,5.96-22.01,7.49-33.46,6.93-11.72-.62-23.41-5.06-31.89-13.3-9.22-8.89-14.22-21.56-14.81-34.25-.6-13.2,2.09-26.96,9.68-37.99,6.36-9.4,16.32-16.06,27.16-19.19h0Z"/>
    <path class="st0" d="M834.46,97.83c11.32-1.99,23.17-.53,33.89,3.53.01,7.51,0,15.01,0,22.5-7.49-5.15-16.63-7.91-25.71-7.59-4.58.18-9.61,2.11-11.69,6.47-1.66,4.3-.51,9.95,3.55,12.52,6.94,4.64,15.22,6.62,22.42,10.78,5.66,3.18,11.16,7.34,14.03,13.34,5.39,11.23,3.11,26.07-6.37,34.45-9.05,8.46-22.08,10.8-34.07,10.35-8.51-.55-17.07-2.23-24.89-5.71.03-7.89-.05-15.78.04-23.67,6.58,4.78,14.18,8.2,22.21,9.59,5.6.91,11.68.95,16.9-1.55,4.99-2.48,5.89-9.57,2.92-13.91-2.77-3.35-6.85-5.19-10.69-7-7.21-3.24-14.79-5.96-21.13-10.82-4.45-3.47-7.83-8.37-9.14-13.89-1.96-8.14-1.35-17.31,3.39-24.42,5.41-8.29,14.79-13.26,24.36-14.96h0Z"/>
    <path class="st0" d="M665.12,101.05c6.76-4.06,15.35-4.4,22.72-1.92-.03,8.17,0,16.33-.02,24.5-4.83-3.13-10.85-4.47-16.55-3.89-6.95.79-12.46,6.13-15.31,12.25-3.1,6.48-3.69,13.81-3.49,20.89,0,16.31,0,32.62,0,48.93h-24.14c-.02-34.09.03-68.19-.02-102.28,8.06-.1,16.11-.06,24.17-.02-.03,5.85,0,11.71-.02,17.57,2.62-6.37,6.51-12.56,12.65-16.03h0Z"/>
    <path class="st0" d="M489.45,99.51c8.12-.03,16.24-.12,24.36.04-.1,34.08,0,68.17-.04,102.26h-24.31c-.02-34.1,0-68.19-.01-102.3h0Z"/>
    <path class="st0" d="M767.95,101.76c-10.91-4.96-23.3-5.63-35.05-4.13-12.34,1.56-24.35,7.36-32.19,17.2-7.15,8.78-10.63,20.07-11.3,31.27-.99,13.2,1.22,27.2,8.97,38.22,6.6,9.5,17.02,16.04,28.28,18.45,9.41,1.98,19.25,1.99,28.66.03,11.01-2.26,21.29-8.36,28.11-17.34,6.66-8.46,10.01-19.14,10.76-29.79.77-10.91-.33-22.21-4.87-32.27-4.25-9.45-11.92-17.34-21.38-21.61ZM765.68,170.34c-2.34,5.26-6.62,9.71-12.03,11.82-6.32,2.43-13.43,2.57-19.96.88-6.64-1.75-12.28-6.55-15.35-12.66-3.94-7.87-4.54-16.98-3.72-25.61.74-7.85,3.47-15.93,9.46-21.35,4.34-4.05,10.25-6.03,16.11-6.36,7.36-.48,15.19,1.6,20.48,6.95,5.66,5.56,7.85,13.63,8.45,21.33.44,8.42.09,17.2-3.45,25.01Z"/>
    <path class="st0" d="M985.41,126.33c-3.77-10.16-11.31-18.94-21.03-23.8-11.15-5.63-24.12-6.45-36.34-4.94-9.85,1.26-19.53,5-27.05,11.61-9.18,7.91-14.56,19.53-16.15,31.42-1.51,11.89-1,24.42,3.85,35.55,4.65,10.92,13.83,19.79,24.87,24.13,10.9,4.29,23.01,4.77,34.48,2.92,11.73-1.94,22.84-8.1,30.1-17.6,7.76-9.8,11.1-22.49,11.08-34.85.17-8.27-.86-16.66-3.81-24.44ZM963.32,161.02c-.94,5.38-2.8,10.76-6.33,15.02-3.56,4.28-8.85,6.89-14.31,7.7-5.86.88-12.03.46-17.51-1.9-5.92-2.5-10.5-7.62-12.91-13.51-2.9-7.02-3.48-14.79-2.9-22.29.56-7.27,2.62-14.73,7.42-20.38,4.38-5.28,11.1-8.19,17.87-8.57,6.91-.48,14.3,1.12,19.62,5.79,4.9,4.07,7.61,10.16,8.86,16.29,1.4,7.19,1.39,14.64.2,21.87Z"/>
  </g>
  <g>
    <path class="st1" d="M3,7.39h113.2c0,37.73,0,75.47,0,113.2H3V7.39h0Z"/>
    <path class="st2" d="M127.76,7.39h113.2c0,37.73,0,75.47,0,113.2-37.73,0-75.46,0-113.19,0-.01-37.73,0-75.47,0-113.2h0Z"/>
    <path class="st4" d="M3,132.14c37.73.01,75.47,0,113.2.01,0,37.73,0,75.46,0,113.2H3v-113.21h0Z"/>
    <path class="st3" d="M127.77,132.16c37.73-.01,75.46,0,113.2,0v113.2h-113.2c0-37.73,0-75.47,0-113.2h0Z"/>
  </g>
</svg>