<?xml version="1.0" encoding="UTF-8"?>
<svg id="Layer_1" xmlns="http://www.w3.org/2000/svg" version="1.1" viewBox="0 0 974.16 251.86">
  <!-- Generator: Adobe Illustrator 29.5.0, SVG Export Plug-In . SVG Version: 2.1.0 Build 137)  -->
  <defs>
    <style>
      .st0 {
        fill: #00ed64;
      }
    </style>
  </defs>
  <path class="st0" d="M74.44,29.34c-9.39-11.15-17.48-22.47-19.14-24.82-.17-.17-.44-.17-.61,0-1.65,2.35-9.74,13.67-19.14,24.82-80.64,102.84,12.7,172.25,12.7,172.25l.78.52c.7,10.71,2.43,26.12,2.43,26.12h6.96s1.74-15.33,2.44-26.12l.78-.61c.09.09,93.43-69.32,12.79-172.16h0ZM54.95,200.11s-4.17-3.57-5.31-5.4v-.17l5.05-111.99c0-.35.52-.35.52,0l5.04,111.99v.17c-1.13,1.83-5.31,5.4-5.31,5.4ZM229.63,176.49l-38.9-94.32-.09-.26h-30.26v6.34h4.88c1.48,0,2.88.61,3.92,1.65,1.05,1.04,1.57,2.43,1.57,3.91l-.87,94.93c0,2.95-2.44,5.38-5.41,5.47l-4.97.09v6.25h29.48v-6.25l-3.05-.09c-2.96-.09-5.41-2.52-5.41-5.47v-89.46l42.38,101.27c.61,1.48,2.01,2.43,3.58,2.43s2.96-.96,3.58-2.43l41.42-99.01.61,87.2c0,3.04-2.44,5.47-5.49,5.56h-3.14v6.25h34.54v-6.25h-4.71c-2.96,0-5.41-2.52-5.49-5.47l-.26-94.93c0-3.04,2.44-5.47,5.41-5.56l5.06-.09v-6.34h-29.48l-38.9,94.58ZM500.83,192.65c-.96-.95-1.49-2.26-1.49-3.82v-46.5c0-8.85-2.62-15.79-7.87-20.73-5.16-4.94-12.33-7.46-21.25-7.46-12.5,0-22.38,5.03-29.29,14.92-.09.17-.35.26-.61.26s-.44-.17-.44-.43l-3.24-12.41h-5.42l-13.9,7.89v4.34h3.59c1.66,0,3.06.43,4.02,1.3.96.87,1.49,2.17,1.49,3.99v54.74c0,1.56-.52,2.86-1.49,3.82-.96.95-2.27,1.47-3.85,1.47h-3.5v6.33h32v-6.33h-3.5c-1.57,0-2.89-.52-3.85-1.47-.96-.95-1.49-2.26-1.49-3.82v-36.26c0-4.6,1.05-9.2,2.97-13.71,2.01-4.42,4.98-8.15,8.92-11.02,3.93-2.86,8.66-4.25,14.08-4.25,6.12,0,10.76,1.91,13.64,5.73,2.89,3.82,4.37,8.76,4.37,14.66v44.76c0,1.56-.53,2.86-1.49,3.82-.96.95-2.27,1.47-3.85,1.47h-3.5v6.33h32v-6.33h-3.5c-1.31.17-2.54-.35-3.59-1.3h0ZM793.21,89.07c-8.85-4.71-18.73-7.15-29.4-7.15h-41.63v6.37h4.08c1.56,0,2.95.61,4.34,2.01,1.3,1.31,1.99,2.79,1.99,4.36v93.86c0,1.57-.69,3.05-1.99,4.36-1.3,1.31-2.77,2.01-4.34,2.01h-4.08v6.37h41.63c10.67,0,20.55-2.44,29.4-7.15,8.85-4.71,16.04-11.69,21.25-20.59,5.2-8.9,7.89-19.63,7.89-31.84s-2.69-22.85-7.89-31.84c-5.29-9.07-12.4-16.05-21.25-20.76ZM805.61,141.49c0,11.17-1.99,20.59-5.9,28.17-3.9,7.59-9.11,13.26-15.52,16.92-6.42,3.66-13.53,5.5-21.16,5.5h-8.41c-1.56,0-2.95-.61-4.34-2.01-1.3-1.31-1.99-2.79-1.99-4.36v-88.54c0-1.57.61-2.97,1.99-4.36,1.3-1.31,2.77-2.01,4.34-2.01h8.41c7.63,0,14.74,1.83,21.16,5.5,6.42,3.66,11.62,9.33,15.52,16.92,3.9,7.59,5.9,17.1,5.9,28.26ZM920.74,147.86c-3.85-4.45-11.28-8.2-20.02-10.21,12.06-6.02,18.26-14.48,18.26-25.38,0-5.93-1.57-11.25-4.72-15.79-3.14-4.54-7.6-8.2-13.28-10.73-5.69-2.53-12.33-3.84-19.85-3.84h-47.12v6.37h3.76c1.57,0,2.97.61,4.37,2.01,1.31,1.31,2.01,2.79,2.01,4.36v93.86c0,1.57-.7,3.05-2.01,4.36-1.31,1.31-2.8,2.01-4.37,2.01h-4.11v6.37h51.14c7.78,0,15.03-1.31,21.59-3.93,6.56-2.62,11.8-6.45,15.56-11.51,3.84-5.06,5.77-11.25,5.77-18.41-.09-7.68-2.36-14.22-6.99-19.54ZM862.08,190.16c-1.31-1.31-2.01-2.79-2.01-4.36v-42.13h24.31c8.56,0,15.12,2.18,19.67,6.54,4.55,4.36,6.82,10.03,6.82,17.01,0,4.19-1.05,8.29-2.97,12.04-2.01,3.84-4.99,6.89-9.01,9.25-3.94,2.36-8.83,3.58-14.51,3.58h-17.93c-1.57.09-2.97-.61-4.37-1.92h0ZM860.16,134.69v-37.42c0-1.57.61-2.97,2.01-4.36,1.31-1.31,2.8-2.01,4.37-2.01h11.54c8.3,0,14.42,2.09,18.27,6.11,3.84,4.1,5.77,9.33,5.77,15.79s-1.84,11.95-5.42,15.96c-3.59,3.92-9.01,5.93-16.17,5.93h-20.37ZM379.01,119.7c-6.68-3.65-14.14-5.56-22.21-5.56s-15.62,1.83-22.21,5.56c-6.68,3.65-11.97,8.95-15.88,15.65-3.9,6.69-5.9,14.52-5.9,23.21s2,16.52,5.9,23.21c3.9,6.69,9.2,12,15.88,15.65,6.68,3.65,14.14,5.56,22.21,5.56s15.62-1.83,22.21-5.56c6.68-3.65,11.97-8.95,15.88-15.65,3.9-6.69,5.9-14.52,5.9-23.21s-2-16.52-5.9-23.21c-3.9-6.69-9.2-11.91-15.88-15.65h0ZM385.43,158.56c0,10.69-2.6,19.38-7.81,25.64-5.12,6.26-12.15,9.48-20.82,9.48s-15.7-3.22-20.82-9.48c-5.21-6.26-7.81-14.95-7.81-25.64s2.6-19.38,7.81-25.64c5.12-6.26,12.15-9.48,20.82-9.48s15.7,3.22,20.82,9.48c5.21,6.35,7.81,14.95,7.81,25.64ZM686.47,119.7c-6.68-3.65-14.14-5.56-22.21-5.56s-15.62,1.83-22.21,5.56c-6.68,3.65-11.97,8.95-15.88,15.65-3.9,6.69-5.9,14.52-5.9,23.21s2,16.52,5.9,23.21,9.2,12,15.88,15.65c6.68,3.65,14.14,5.56,22.21,5.56s15.62-1.83,22.21-5.56c6.68-3.65,11.97-8.95,15.88-15.65,3.9-6.69,5.9-14.52,5.9-23.21s-2-16.52-5.9-23.21-9.28-11.91-15.88-15.65h0ZM692.89,158.56c0,10.69-2.6,19.38-7.81,25.64-5.12,6.26-12.15,9.48-20.82,9.48s-15.7-3.22-20.82-9.48c-5.21-6.26-7.81-14.95-7.81-25.64s2.6-19.38,7.81-25.64c5.12-6.26,12.15-9.48,20.82-9.48s15.7,3.22,20.82,9.48c5.12,6.35,7.81,14.95,7.81,25.64ZM562.47,114.14c-6.99,0-13.37,1.48-19.13,4.45-5.77,2.97-10.31,6.99-13.54,12.14-3.23,5.06-4.89,10.74-4.89,16.77,0,5.41,1.22,10.39,3.76,14.85,2.45,4.28,5.77,7.86,9.96,10.83l-12.49,16.94c-1.57,2.1-1.75,4.89-.61,7.16,1.22,2.36,3.49,3.76,6.12,3.76h3.58c-3.5,2.36-6.29,5.15-8.21,8.47-2.27,3.76-3.41,7.68-3.41,11.7,0,7.51,3.32,13.71,9.87,18.34,6.47,4.63,15.55,6.99,27,6.99,7.95,0,15.55-1.31,22.46-3.84,6.99-2.53,12.67-6.29,16.86-11.18,4.28-4.89,6.47-10.83,6.47-17.64,0-7.16-2.62-12.23-8.74-17.12-5.24-4.11-13.46-6.29-23.68-6.29h-34.95c-.09,0-.18-.09-.18-.09,0,0-.09-.17,0-.26l9.09-12.23c2.15,1,4.41,1.76,6.73,2.27,2.1.44,4.46.61,7.08.61,7.34,0,13.98-1.48,19.75-4.45,5.77-2.97,10.4-6.99,13.72-12.14,3.32-5.06,4.98-10.74,4.98-16.77,0-6.46-3.15-18.25-11.71-24.28,0-.09.09-.09.09-.09l18.78,2.1v-8.65h-30.06c-4.72-1.57-9.61-2.36-14.68-2.36ZM572.96,168.72c-3.32,1.75-6.9,2.71-10.48,2.71-5.85,0-11.01-2.1-15.38-6.2-4.37-4.1-6.55-10.13-6.55-17.81s2.18-13.71,6.55-17.82c4.37-4.11,9.52-6.2,15.38-6.2,3.67,0,7.16.87,10.48,2.71,3.32,1.75,6.03,4.45,8.21,8.03,2.1,3.58,3.23,8.03,3.23,13.27s-1.05,9.78-3.23,13.27c-2.1,3.58-4.89,6.29-8.21,8.03ZM549.28,200.95h23.68c6.55,0,10.75,1.31,13.54,4.11,2.8,2.79,4.19,6.55,4.19,10.92,0,6.37-2.53,11.61-7.6,15.54-5.07,3.93-11.88,5.94-20.27,5.94-7.34,0-13.46-1.66-17.91-4.8-4.46-3.14-6.73-7.95-6.73-14.06,0-3.84,1.05-7.42,3.15-10.57,2.1-3.14,4.63-5.41,7.95-7.07h0ZM945.46,199.78c-1.72-.94-3.02-2.32-4.06-3.94-.95-1.71-1.47-3.51-1.47-5.49s.52-3.86,1.47-5.49c.95-1.71,2.33-3,4.06-3.94,1.73-.94,3.63-1.46,5.79-1.46s4.06.51,5.79,1.46c1.72.94,3.02,2.32,4.06,3.94.95,1.71,1.47,3.51,1.47,5.49s-.52,3.86-1.47,5.49c-.95,1.71-2.33,3-4.06,3.94-1.73.94-3.63,1.46-5.79,1.46s-4.06-.51-5.79-1.46ZM956.09,198.5c1.46-.77,2.51-1.97,3.37-3.34.8-1.5,1.22-3.18,1.21-4.89,0-1.8-.44-3.43-1.21-4.89-.76-1.43-1.93-2.6-3.37-3.34-1.47-.77-3.03-1.2-4.84-1.2s-3.37.43-4.84,1.2c-1.46.77-2.51,1.97-3.37,3.34-.8,1.5-1.22,3.18-1.21,4.89,0,1.8.44,3.43,1.21,4.89.76,1.43,1.93,2.6,3.37,3.34,1.47.77,3.03,1.2,4.84,1.2s3.46-.43,4.84-1.2h0ZM946.58,195.5v-.77l.17-.09h.52c.17,0,.34-.09.43-.17.17-.17.17-.26.17-.43v-7.97c0-.17-.09-.34-.17-.43-.17-.17-.26-.17-.43-.17h-.52l-.17-.09v-.77l.17-.09h4.49c1.3,0,2.25.26,3.02.86.78.6,1.12,1.37,1.12,2.4,0,.77-.25,1.54-.86,2.06-.6.6-1.3.94-2.16,1.03l1.04.34,1.99,3.17c.17.26.35.34.61.34h.51l.09.09v.77l-.09.09h-2.67l-.17-.09-2.77-4.63h-.69v3.09c0,.17.09.34.17.43.17.17.26.17.43.17h.52l.17.09v.77l-.17.09h-4.58l-.17-.09h0ZM950.99,189.92c.7,0,1.3-.17,1.65-.6.34-.34.6-.94.6-1.63s-.17-1.2-.51-1.63c-.35-.43-.87-.6-1.47-.6h-.35c-.16,0-.31.06-.43.17-.17.17-.17.26-.17.43v3.86h.69,0Z"/>
</svg>