<?xml version="1.0" encoding="UTF-8"?>
<svg id="Layer_1" xmlns="http://www.w3.org/2000/svg" version="1.1" viewBox="0 0 379.36 251.86">
  <!-- Generator: Adobe Illustrator 29.5.0, SVG Export Plug-In . SVG Version: 2.1.0 Build 137)  -->
  <defs>
    <style>
      .st0 {
        fill: #f29111;
      }

      .st1 {
        fill: #00758f;
      }
    </style>
  </defs>
  <path class="st1" d="M114.88,165.81l11.09,35.97c2.49,8.17,3.53,13.87,3.11,17.12,6.06-16.24,10.3-33.94,12.71-53.09h13.33c-5.73,31.18-13.29,53.84-22.68,67.98-7.31,10.89-15.32,16.34-24.04,16.34-2.33,0-5.19-.7-8.6-2.1v-7.52c1.66.24,3.61.37,5.86.37,4.07,0,7.35-1.13,9.84-3.38,2.99-2.74,4.48-5.82,4.48-9.24,0-2.33-1.17-7.12-3.49-14.36l-15.45-48.1h13.83ZM30.03,143.7l20.31,61.96h.13l20.43-61.96h16.69c3.66,30.73,5.81,58.84,6.48,84.32h-14.07c-.5-23.82-1.87-46.22-4.11-67.2h-.12l-21.43,67.2h-10.72l-21.3-67.2h-.13c-1.58,20.15-2.58,42.55-2.99,67.2H6.36c.83-29.98,2.9-58.09,6.23-84.32h17.45Z"/>
  <path class="st0" d="M257.52,142.45c21.84,0,32.77,13.96,32.77,41.85,0,15.16-3.28,26.61-9.85,34.35-1.18,1.41-2.49,2.63-3.87,3.77l15.46,7.64h-.01s-5.49,9.48-5.49,9.48l-20.13-11.75c-3.34.99-7.01,1.48-11.01,1.48-10.73,0-18.74-3.13-24.03-9.37-5.81-6.91-8.72-17.78-8.72-32.6s3.28-26.48,9.84-34.23c5.98-7.09,14.33-10.62,25.04-10.62M190.63,142.57c7.81,0,14.91,2.09,21.3,6.25l-3.25,7.24c-5.47-2.33-10.87-3.49-16.19-3.49-4.32,0-7.64,1.04-9.96,3.13-2.33,2.07-3.77,4.74-3.77,7.99,0,4.99,3.56,9.33,10.13,12.99,2.15,1.18,4.3,2.37,6.43,3.57l.49.28.25.14.49.28.25.14.49.28c4.97,2.8,9.65,5.48,9.65,5.48,6.57,4.66,9.84,9.64,9.84,17.82,0,7.15-2.62,13.02-7.84,17.62-5.23,4.57-12.25,6.87-21.05,6.87-8.23,0-16.2-2.64-23.92-7.87l3.61-7.24c6.65,3.33,12.66,4.99,18.06,4.99,5.06,0,9.03-1.13,11.9-3.36,2.86-2.25,4.58-5.39,4.58-9.36,0-5.01-3.48-9.29-9.87-12.88-2-1.1-3.99-2.22-5.98-3.35l-.49-.28c-.9-.51-1.8-1.02-2.69-1.53l-.48-.27c-4.31-2.45-8.04-4.6-8.04-4.6-6.39-4.67-9.59-9.68-9.59-17.94,0-6.83,2.39-12.35,7.16-16.55,4.78-4.21,10.95-6.31,18.5-6.31M315.95,143.7v73.95h26.53v10.37h-39.99v-84.32h13.46ZM357.23,217.68v1.75h-2.92v8.58h-2.23v-8.58h-3.03v-1.75h8.18ZM362.62,217.68l2.8,7.04,2.57-7.04h3.16v10.33h-2.1v-7.86l-2.93,7.86h-1.52l-2.93-7.86h-.11v7.86h-1.99v-10.33h3.05ZM256.14,152.82c-12.87,0-19.31,10.62-19.31,31.86,0,12.16,1.71,20.98,5.11,26.48,3.16,5.09,8.1,7.63,14.82,7.63,12.87,0,19.31-10.71,19.31-32.11,0-11.99-1.71-20.74-5.11-26.24-3.16-5.08-8.1-7.62-14.83-7.62"/>
  <path class="st1" d="M222.4,6.95c4.27-10.49,19.2-2.55,24.99,1.12,1.42.92,3.05,2.85,4.68,3.57,2.54.1,5.08.3,7.62.4,4.77,1.12,9.24,2.04,13,4.18,17.48,10.29,28.85,20.78,39.32,38.1,2.24,3.67,3.36,7.64,5.18,11.61,2.54,5.92,5.39,12.13,8.33,17.73,1.32,2.65,2.34,5.6,4.17,7.84.71,1.02,2.74,1.33,3.96,1.94,3.35,1.74,7.42,3.05,10.57,5.09,5.89,3.67,11.59,8.05,16.77,12.53,1.93,1.73,3.25,4.18,5.08,6.01v.92c-1.63.5-3.26,1.01-4.89,1.43-3.56.91-6.71.71-10.16,1.62-2.13.62-4.78,1.43-7.01,1.64l.21.21c1.32,3.76,8.43,6.82,11.69,9.06,3.95,2.85,7.62,6.31,10.56,10.29,1.02,1.01,2.04,1.94,3.05,2.95.71,1.02.91,2.35,1.62,3.26v.31c-.79-.28-1.36-.81-1.91-1.37l-.32-.34c-.32-.33-.65-.66-1.02-.94-2.24-1.53-4.47-3.36-6.71-4.79-3.86-2.45-8.33-3.87-12.29-6.32-2.24-1.43-4.37-3.05-6.51-4.68-1.93-1.43-4.06-4.18-5.28-6.21-.72-1.13-.81-2.45-1.63-3.26.15-1.36,1.39-1.76,2.65-2.1l.29-.08c.43-.11.86-.23,1.23-.37,5.28-2.24,11.58-3.06,19.71-2.85-.31-2.04-5.39-4.59-7.01-5.81-3.26-2.35-6.7-4.8-10.16-6.93-1.83-1.12-4.98-1.94-7.01-2.85-2.74-1.12-8.84-2.24-10.36-4.38-2.58-3.37-4.44-7.38-6.24-11.44l-.49-1.11-.49-1.11c-2.13-4.89-4.77-9.98-6.91-14.98-1.12-2.44-1.63-4.58-2.85-6.92-7.42-14.36-18.39-26.39-31.7-34.84-4.37-2.75-9.25-5.3-14.63-7.03-3.05-.92-6.71-.41-9.96-1.12h-2.14c-1.83-.51-3.35-2.45-4.77-3.47-3.15-2.14-6.3-3.57-10.06-5.09-1.32-.61-5.08-2.03-6.4-.91-.81.2-1.23.51-1.43,1.33-.81,1.22-.1,3.05.41,4.18,1.53,3.26,3.66,5.19,5.59,7.94,1.72,2.44,3.86,5.19,5.08,7.85,2.63,5.7,3.86,12.02,6.3,17.73.9,2.14,2.34,4.59,3.65,6.52,1.12,1.54,3.15,2.65,3.76,4.59,1.22,2.04-1.83,8.76-2.54,10.9-2.65,8.36-2.13,19.97.91,27.21l.16.38.16.39c1.11,2.65,2.3,5.51,5.26,6.25.2-.2,0-.1.4-.2.72-5.61.92-11,2.85-15.39,1.12-2.74,3.35-4.68,4.87-6.92,1.02.61,1.02,2.45,1.63,3.67,1.32,3.16,2.74,6.62,4.37,9.78,3.35,6.52,7.11,12.84,11.38,18.54,1.43,2.04,3.46,4.28,5.28,6.11.81.71,1.73,1.12,2.34,2.03h.2v.31c-3.05-1.12-4.98-4.28-7.41-6.12-4.58-3.46-10.06-8.66-13.21-13.64-1.32-2.86-2.75-5.61-4.17-8.46v-.21c-.61.81-.4,1.62-.71,2.85-1.32,5.09-.3,10.9-4.88,12.73-5.18,2.14-9.05-3.46-10.67-6.01-5.18-8.45-6.6-22.72-2.95-34.23.81-2.55.92-5.61,2.34-7.64-.31-1.84-1.72-2.34-2.54-3.47-1.42-1.93-2.64-4.17-3.75-6.31-2.14-4.18-3.66-9.17-5.28-13.66-.71-1.83-.92-3.67-1.63-5.4-1.21-2.64-3.45-5.3-5.18-7.64-2.34-3.36-9.15-9.88-6.4-16.51M255.73,26.91c.27.27.6.51.94.74l.41.28c.55.38,1.07.78,1.4,1.32.51.72.61,1.42,1.22,2.14,0,2.45-.71,4.08-2.14,5.09,0,0-.1.11-.2.21-.81-1.63-1.52-3.26-2.34-4.89-1.01-1.42-2.43-2.55-3.25-4.18h-.2v-.2c1.23-.3,2.44-.51,4.17-.51"/>
</svg>