<?xml version="1.0" encoding="UTF-8"?>
<svg id="Layer_1" xmlns="http://www.w3.org/2000/svg" version="1.1" viewBox="0 0 558.83 251.86">
  <!-- Generator: Adobe Illustrator 29.5.0, SVG Export Plug-In . SVG Version: 2.1.0 Build 137)  -->
  <defs>
    <style>
      .st0 {
        fill: #4c4b4b;
      }

      .st1 {
        fill: #539e43;
      }
    </style>
  </defs>
  <path class="st1" d="M112.78,244.95c-3.28,0-6.34-.87-9.18-2.41l-29.09-17.28c-4.37-2.41-2.19-3.28-.87-3.72,5.9-1.97,7-2.41,13.12-5.91.66-.44,1.53-.22,2.19.22l22.31,13.34c.87.44,1.97.44,2.62,0l87.26-50.52c.87-.44,1.31-1.31,1.31-2.41v-100.81c0-1.09-.44-1.97-1.31-2.41L113.87,22.76c-.87-.44-1.97-.44-2.62,0L23.99,73.06c-.87.44-1.31,1.53-1.31,2.41v100.81c0,.87.44,1.97,1.31,2.41l23.84,13.78c12.9,6.56,20.99-1.09,20.99-8.75v-99.5c0-1.31,1.09-2.62,2.62-2.62h11.15c1.31,0,2.62,1.09,2.62,2.62v99.5c0,17.28-9.4,27.34-25.81,27.34-5.03,0-8.97,0-20.12-5.47l-22.96-13.12c-5.69-3.28-9.18-9.4-9.18-15.96v-100.81c0-6.56,3.5-12.68,9.18-15.96L103.6,9.21c5.47-3.06,12.9-3.06,18.37,0l87.26,50.52c5.69,3.28,9.18,9.4,9.18,15.96v100.81c0,6.56-3.5,12.68-9.18,15.96l-87.26,50.52c-2.84,1.31-6.12,1.97-9.18,1.97M139.68,175.62c-38.27,0-46.14-17.49-46.14-32.36,0-1.31,1.09-2.62,2.62-2.62h11.37c1.31,0,2.41.87,2.41,2.19,1.75,11.59,6.78,17.28,29.96,17.28,18.37,0,26.24-4.15,26.24-14,0-5.69-2.19-9.84-30.83-12.68-23.84-2.41-38.71-7.65-38.71-26.68,0-17.71,14.87-28.21,39.8-28.21,27.99,0,41.77,9.62,43.52,30.62,0,.66-.22,1.31-.66,1.97-.44.44-1.09.87-1.75.87h-11.37c-1.09,0-2.19-.87-2.41-1.97-2.62-12.03-9.4-15.96-27.34-15.96-20.12,0-22.52,7-22.52,12.25,0,6.34,2.84,8.31,29.96,11.81,26.9,3.5,39.58,8.53,39.58,27.34-.22,19.24-15.96,30.18-43.74,30.18"/>
  <g>
    <path class="st0" d="M259.79,158.42v-59.99h15.84l12.46,21.99c3.56,6.32,7.12,13.8,9.79,20.56h.27c-.89-7.92-1.16-16.02-1.16-25.1v-17.45h12.46v59.99h-14.24l-12.82-23.14c-3.56-6.41-7.48-14.15-10.41-21.18l-.27.09c.36,7.92.53,16.38.53,26.17v18.07h-12.46Z"/>
    <path class="st0" d="M360.36,136.17c0,15.93-11.3,23.23-22.96,23.23-12.73,0-22.52-8.37-22.52-22.43s9.26-23.05,23.23-23.05,22.25,9.17,22.25,22.25ZM328.86,136.61c0,7.48,3.12,13.08,8.9,13.08,5.25,0,8.63-5.25,8.63-13.08,0-6.5-2.49-13.08-8.63-13.08-6.5,0-8.9,6.68-8.9,13.08Z"/>
    <path class="st0" d="M408.07,95.22v50.2c0,4.9.18,10.06.36,13h-12.02l-.62-6.41h-.18c-2.76,4.9-8.01,7.39-13.62,7.39-10.33,0-18.6-8.81-18.6-22.34-.09-14.69,9.08-23.14,19.49-23.14,5.34,0,9.52,1.87,11.48,4.9h.18v-23.59h13.53ZM394.54,133.32c0-.71-.09-1.69-.18-2.4-.8-3.65-3.74-6.68-7.92-6.68-6.14,0-9.35,5.52-9.35,12.37,0,7.39,3.65,12.02,9.26,12.02,3.92,0,7.03-2.67,7.83-6.5.27-.98.36-1.96.36-3.12v-5.7Z"/>
    <path class="st0" d="M426.23,140.97c.44,5.61,5.96,8.28,12.28,8.28,4.63,0,8.37-.62,12.02-1.78l1.78,9.17c-4.45,1.78-9.88,2.76-15.75,2.76-14.78,0-23.23-8.63-23.23-22.25,0-11.04,6.85-23.23,21.99-23.23,14.06,0,19.4,10.95,19.4,21.72,0,2.31-.27,4.36-.45,5.34h-28.04ZM442.16,131.72c0-3.29-1.42-8.81-7.65-8.81-5.7,0-8.01,5.16-8.37,8.81h16.02Z"/>
    <path class="st0" d="M486.75,98.43h13.53v37.92c0,17.09-8.19,23.05-21.36,23.05-3.12,0-7.21-.53-9.88-1.42l1.51-10.95c1.87.62,4.27,1.07,6.94,1.07,5.7,0,9.26-2.58,9.26-11.93v-37.74Z"/>
    <path class="st0" d="M508.91,144.45c3.65,1.87,9.26,3.74,15.04,3.74,6.23,0,9.52-2.58,9.52-6.5s-2.85-5.87-10.06-8.46c-9.97-3.47-16.47-8.99-16.47-17.71,0-10.24,8.55-18.07,22.7-18.07,6.76,0,11.75,1.42,15.31,3.03l-3.03,10.95c-2.4-1.16-6.68-2.85-12.55-2.85s-8.72,2.67-8.72,5.79c0,3.83,3.38,5.52,11.13,8.46,10.59,3.92,15.58,9.43,15.58,17.89,0,10.06-7.74,18.69-24.21,18.69-6.85,0-13.62-1.87-17-3.74l2.76-11.22Z"/>
  </g>
</svg>