<?xml version="1.0" encoding="UTF-8"?>
<svg id="Layer_1" xmlns="http://www.w3.org/2000/svg" version="1.1" viewBox="0 0 798.38 251.86">
  <!-- Generator: Adobe Illustrator 29.5.0, SVG Export Plug-In . SVG Version: 2.1.0 Build 137)  -->
  <defs>
    <style>
      .st0 {
        fill: #087ea4;
      }

      .st1 {
        fill: #23272f;
      }
    </style>
  </defs>
  <path class="st1" d="M313.9,187V62.73h53.61c15.69,0,27.44,3.52,35.26,10.56,7.82,6.98,11.72,16.42,11.72,28.32,0,8.99-2.24,16.63-6.71,22.9-4.47,6.27-11.22,10.74-20.23,13.4,5.43,7.63,10.74,15.56,15.93,23.79,5.19,8.23,10.17,16.66,14.95,25.3h-21.93c-4.36-8.4-8.95-16.6-13.78-24.59-4.77-7.99-9.46-15.3-14.05-21.92h-35.98v46.51h-18.79ZM365.72,80.04h-33.03v43.49h33.03c10.14,0,17.6-1.78,22.37-5.33,4.77-3.61,7.16-9.08,7.16-16.42s-2.39-12.78-7.16-16.33c-4.77-3.61-12.23-5.41-22.37-5.41ZM474.11,189.13c-8.59,0-16.14-1.95-22.64-5.86-6.44-3.91-11.49-9.35-15.12-16.33-3.58-6.98-5.37-15.06-5.37-24.23s1.79-17.25,5.37-24.23c3.64-7.04,8.68-12.52,15.12-16.42,6.5-3.96,14.05-5.95,22.64-5.95h1.97c7.82,0,14.68,1.92,20.58,5.77,5.97,3.79,10.62,9.29,13.96,16.51,3.34,7.16,5.01,15.8,5.01,25.92v5.41h-66.14c1.07,7.28,3.82,13.02,8.23,17.22,4.47,4.14,10.29,6.21,17.45,6.21h1.79c4.3,0,8.41-.86,12.35-2.57,3.94-1.78,7.25-4.14,9.93-7.1l11.01,11.54c-4.06,4.32-9.07,7.75-15.04,10.3-5.91,2.54-12.29,3.82-19.15,3.82h-1.97ZM473.57,112.08c-6.39,0-11.73,2.1-16.02,6.3-4.24,4.14-6.92,9.82-8.05,17.04h48.15c-.54-6.57-2.72-12.1-6.53-16.6-3.76-4.5-9.01-6.75-15.75-6.75h-1.79ZM560.92,188.77c-9.43,0-16.77-2.4-22.02-7.19-5.19-4.85-7.79-11.21-7.79-19.08s2.92-14.35,8.77-19.62c5.91-5.27,15.31-7.9,28.19-7.9h24.34v-.27c0-14.91-6.92-22.37-20.76-22.37-5.79,0-10.68,1.04-14.68,3.11-3.94,2.07-7.13,4.97-9.58,8.7l-12.26-9.85c3.82-5.86,8.83-10.36,15.04-13.49,6.26-3.14,13.36-4.7,21.3-4.7h1.97c10.98,0,19.81,3.14,26.49,9.41,6.68,6.27,10.02,15.65,10.02,28.14v53.35h-17.18v-14.47c-3.46,5.21-7.91,9.23-13.34,12.07-5.43,2.78-11.6,4.17-18.53,4.17ZM564.86,172.97c6.92,0,12.68-1.54,17.27-4.62,4.59-3.14,8.02-7.37,10.29-12.69v-6.75h-23.63c-7.04,0-12.08,1.12-15.13,3.37-2.98,2.19-4.47,5.18-4.47,8.96,0,7.81,5.22,11.72,15.66,11.72ZM673.84,189.13c-8.59,0-16.2-1.86-22.82-5.59-6.62-3.73-11.81-9.05-15.57-15.98-3.7-6.98-5.55-15.27-5.55-24.85s1.85-17.93,5.55-24.85c3.7-6.98,8.83-12.34,15.39-16.07,6.62-3.79,14.29-5.68,23-5.68h1.97c6.92,0,13.45,1.78,19.6,5.33,6.2,3.49,11.22,8.31,15.04,14.47l-13.87,9.59c-2.56-4.02-5.64-7.16-9.22-9.41-3.58-2.31-7.64-3.46-12.17-3.46h-1.79c-7.76,0-13.87,2.72-18.35,8.17-4.41,5.38-6.62,12.66-6.62,21.84s2.21,16.39,6.62,21.84c4.47,5.44,10.59,8.17,18.35,8.17h1.79c4.53,0,8.71-1.01,12.53-3.02,3.82-2.01,7.1-4.7,9.84-8.08l12.89,10.83c-4,5.21-9.04,9.32-15.13,12.34-6.03,2.96-12.53,4.44-19.51,4.44h-1.97ZM770.36,188.15c-10.62,0-18.7-2.66-24.25-7.99-5.55-5.33-8.32-13.52-8.32-24.59v-41.9h-17.54v-15.44h17.54v-26.45h17.9v26.45h30.16v15.44h-30.16v39.5c0,6.98,1.46,11.83,4.39,14.56,2.92,2.72,7.25,4.08,12.98,4.08,2.75,0,5.19-.12,7.34-.36,2.21-.24,4.47-.53,6.8-.89v15.53c-2.39.59-5.07,1.07-8.05,1.42-2.98.41-5.91.62-8.77.62Z"/>
  <path class="st0" d="M132.72,154.02c13.96,0,25.28-11.63,25.28-25.98s-11.32-25.98-25.28-25.98-25.28,11.63-25.28,25.98,11.32,25.98,25.28,25.98Z"/>
  <path class="st0" d="M264.74,127.34c0-19.69-18.29-36.98-47.4-48.33,4.7-30.87-1.16-55.33-18.26-65.18-15.27-8.8-36.42-4.49-59.56,12.14-2.05,1.47-4.08,3.03-6.11,4.65-2.02-1.62-4.05-3.18-6.08-4.65-23.14-16.63-44.29-20.96-59.56-12.14-17.09,9.85-22.95,34.3-18.23,65.13C20.4,90.32,2.11,107.63,2.11,127.34s18.29,36.98,47.4,48.33c-4.71,30.87,1.16,55.33,18.26,65.18,5.17,2.98,11.04,4.46,17.41,4.46,12.43,0,26.86-5.62,42.15-16.6,2.05-1.47,4.08-3.03,6.11-4.65,2.02,1.62,4.05,3.18,6.08,4.65,15.29,11,29.72,16.6,42.15,16.6,6.38,0,12.24-1.48,17.41-4.46,15.27-8.8,22.1-29.24,19.24-57.56-.25-2.5-.58-5.02-.99-7.6,29.12-11.34,47.4-28.63,47.4-48.34ZM146.84,36.1c13.01-9.35,25.11-14.22,34.83-14.22,4.21,0,7.96.91,11.16,2.75,11.19,6.46,15.98,24.98,12.55,50.23-11.26-3.45-23.71-6.09-37.11-7.77-8.02-10.53-16.52-20.04-25.23-28.15,1.27-.97,2.53-1.93,3.8-2.84ZM74.02,24.63c3.2-1.84,6.96-2.75,11.16-2.75,9.72,0,21.82,4.85,34.83,14.22,1.27.91,2.53,1.86,3.8,2.84-8.71,8.11-17.2,17.6-25.22,28.13-13.38,1.69-25.86,4.34-37.11,7.77-3.42-25.23,1.34-43.75,12.54-50.21ZM14.62,127.34c0-12.9,13.69-26.31,37.31-35.97,2.64,11.44,6.58,23.53,11.79,35.94-5.24,12.42-9.18,24.53-11.82,35.98-23.59-9.66-37.28-23.05-37.28-35.95ZM120.01,218.57c-18.63,13.39-35.39,17.57-45.99,11.47-11.19-6.46-15.98-24.98-12.55-50.23,11.26,3.45,23.71,6.09,37.11,7.77,8.02,10.53,16.52,20.04,25.23,28.15-1.27.98-2.53,1.93-3.8,2.84ZM133.43,207.6c-15.63-14.29-30.66-33.39-43.33-55.3-3.39-5.85-10.25-20.56-13.03-26.26-2.22,5.31-4.41,10.17-6.13,15.35,1.41,2.61,6.83,14.52,8.33,17.13,2.97,5.13,6.08,10.13,9.29,14.96-8.99-1.58-17.31-3.6-24.87-5.99,4.3-19.38,12.88-41.73,26.42-65.13,3.33-5.76,10.56-18.61,14.19-23.95-5.72.73-10.32.49-15.69,1.6-1.56,2.53-7.83,13.52-9.33,16.13-3,5.18-5.75,10.36-8.33,15.51-3.13-8.57-5.52-16.77-7.22-24.51,18.96-5.98,42.65-9.74,69.72-9.74,6.77,0,20.91-.14,27.22.32-3.49-4.57-6.48-8.71-10.12-12.8-2.95-.09-14.09,0-17.1,0-5.97,0-11.82.2-17.56.55,5.69-6.76,11.58-12.94,17.56-18.4,15.62,14.29,30.66,33.39,43.33,55.3,3.33,5.76,10.52,19.16,13.35,24.97,2.24-5.31,4.35-10.14,6.09-15.36-1.41-2.62-7.11-13.26-8.61-15.85-2.97-5.13-6.08-10.13-9.29-14.95,8.99,1.58,17.31,3.6,24.87,5.99-4.3,19.38-12.88,41.73-26.42,65.13-3.33,5.76-12.81,18.94-16.43,24.28,5.72-.73,11.92-1.83,17.3-2.94,1.56-2.53,8.47-12.51,9.97-15.12,2.99-5.15,5.74-10.3,8.29-15.43,3.03,8.33,5.44,16.53,7.19,24.45-18.95,5.98-42.6,9.72-69.64,9.72-6.77,0-22.51-.89-28.82-1.34,3.49,4.57,7.24,9.33,10.88,13.42,2.95.09,14.92.4,17.94.4,5.97,0,11.82-.2,17.56-.55-5.71,6.76-11.58,12.94-17.56,18.4ZM192.83,230.04c-10.6,6.12-27.37,1.93-45.99-11.47-1.27-.9-2.53-1.86-3.8-2.84,8.71-8.11,17.2-17.6,25.22-28.13,13.37-1.69,25.81-4.32,37.05-7.76.22,1.58.44,3.15.59,4.7,2.3,22.81-2.47,39.39-13.07,45.5ZM214.95,163.3c-2.69-11.61-6.67-23.7-11.82-35.92,5.24-12.42,9.18-24.53,11.82-35.98,23.59,9.66,37.28,23.03,37.28,35.94s-13.68,26.29-37.28,35.97Z"/>
</svg>