<?xml version="1.0" encoding="UTF-8"?>
<svg id="Layer_1" xmlns="http://www.w3.org/2000/svg" version="1.1" viewBox="0 0 256 256">
  <!-- Generator: Adobe Illustrator 29.5.0, SVG Export Plug-In . SVG Version: 2.1.0 Build 137)  -->
  <defs>
    <style>
      .st0 {
        fill: #fff;
      }

      .st1 {
        fill: #283d96;
      }

      .st2 {
        fill: #1f5aa6;
      }

      .st3 {
        fill: #2e2a70;
      }

      .st4 {
        fill: #e3282c;
      }

      .st5 {
        fill: #7e7a7a;
      }

      .st6 {
        fill: #196db1;
      }

      .st7 {
        fill: #e4272b;
      }
    </style>
  </defs>
  <path class="st5" d="M127.88,43.29l100.65,105.22-100.4,105.67L27.47,148.56,127.88,43.29ZM127.88,51.73l-92.33,96.83,92.33,97.18,92.93-97.18L127.88,51.73Z"/>
  <path class="st0" d="M127.88,51.73l92.93,96.83-92.93,97.18-92.33-97.18L127.88,51.73ZM164.92,96.7l-37.04-37.94-36.44,37.94h17.23v37.97h38.67v-37.97h17.58ZM85.47,103.03l-43.22,45.23,43.22,45.13v-90.35ZM170.55,103.03v90.35l43.22-45.13-43.22-45.23ZM147.35,198.66v-43.07s-.49-.53-.53-.53h-37.62s-.53.49-.53.53v43.07h-18.28l37.49,40.05,38.1-40.05h-18.63Z"/>
  <path class="st3" d="M147.35,198.66h18.63l-38.1,40.05-37.49-40.05h18.28v-43.07s.49-.53.53-.53h37.62s.53.49.53.53v43.07Z"/>
  <polygon class="st2" points="164.92 96.7 147.35 96.7 147.35 134.67 108.67 134.67 108.67 96.7 91.45 96.7 127.88 58.76 164.92 96.7"/>
  <polygon class="st7" points="170.55 103.03 213.77 148.26 170.55 193.38 170.55 103.03"/>
  <polygon class="st4" points="85.47 103.03 85.47 193.38 42.25 148.26 85.47 103.03"/>
  <path class="st6" d="M179.46,30.29l-51.83,20.72-58.92-23.36c-.07-.7,2.62-1.67,3.28-1.99,17.98-8.62,37.5-15.39,55.64-23.84l58.86,24.96c.68,1.02-3.76,1.95-3.89,2.32.81,3.76-1.08,18.42.2,20.87.15.29,1.25.77,1.73,1.43,1.68,2.29,1.15,5.83-1.52,7.17l6.22,33.74c-.15.6-3.33,1.79-3.64,1.27-1.1-1.84-1.04-11.14-2.27-13.72-.81,4.21,1.16,10.73.34,14.58-.17.79-1.72,2.45-2.55,2.26-.15-.04-2.32-1.83-2.36-1.97-.97-3.32,1.18-10.7.35-14.51-1.3,2.51-1.17,11.59-2.27,13.37-.32.52-3.47-.69-3.58-1.22,1.76-10.89,3.97-21.72,5.59-32.63.07-.49.61-1.06.61-1.15,0-.32-3.48-1.29-2.78-5.25.38-2.17,2.79-2.8,2.79-3.01v-20.04Z"/>
  <path class="st1" d="M164.34,41.54v17.58c-12.78,4.74-25.1,10.7-36.68,17.87-11.15-7.63-23.78-12.64-36.1-18.05v-17.05c12.19,4.08,23.95,9.81,36.03,14.37l36.75-14.73Z"/>
</svg>