<?xml version="1.0" encoding="UTF-8"?>
<svg id="Layer_1" xmlns="http://www.w3.org/2000/svg" version="1.1" viewBox="0 0 920 184">
  <!-- Generator: Adobe Illustrator 29.5.0, SVG Export Plug-In . SVG Version: 2.1.0 Build 137)  -->
  <defs>
    <style>
      .st0 {
        fill: #244a9e;
      }

      .st1 {
        fill: #fff;
      }

      .st2 {
        fill: #283d96;
      }

      .st3 {
        fill: #1f5aa6;
      }

      .st4 {
        fill: #2e2a70;
      }

      .st5 {
        fill: #e3282c;
      }

      .st6 {
        fill: #7e7a7a;
      }

      .st7 {
        fill: #196db1;
      }

      .st8 {
        fill: #e4272b;
      }
    </style>
  </defs>
  <g>
    <path class="st6" d="M114.84,32.83l70.3,73.49-70.13,73.81L44.7,106.36,114.84,32.83ZM114.84,38.73L50.34,106.36l64.49,67.88,64.91-67.88L114.84,38.73Z"/>
    <path class="st1" d="M114.84,38.73l64.91,67.63-64.91,67.88L50.34,106.36,114.84,38.73ZM140.71,70.14l-25.87-26.5-25.45,26.5h12.03v26.52h27.01v-26.52h12.28ZM85.21,74.56l-30.18,31.59,30.18,31.52v-63.11ZM144.64,74.56v63.11l30.18-31.52-30.18-31.59ZM128.43,141.35v-30.08s-.34-.37-.37-.37h-26.28s-.37.34-.37.37v30.08h-12.77l26.19,27.97,26.61-27.97h-13.01Z"/>
    <path class="st4" d="M128.43,141.35h13.01l-26.61,27.97-26.19-27.97h12.77v-30.08s.34-.37.37-.37h26.28s.37.34.37.37v30.08Z"/>
    <polygon class="st3" points="140.71 70.14 128.43 70.14 128.43 96.66 101.42 96.66 101.42 70.14 89.38 70.14 114.84 43.64 140.71 70.14"/>
    <polygon class="st8" points="144.64 74.56 174.82 106.15 144.64 137.67 144.64 74.56"/>
    <polygon class="st5" points="85.21 74.56 85.21 137.67 55.03 106.15 85.21 74.56"/>
    <path class="st7" d="M150.86,23.75l-36.2,14.47-41.16-16.32c-.05-.49,1.83-1.17,2.29-1.39,12.56-6.02,26.19-10.75,38.86-16.65l41.11,17.43c.48.71-2.63,1.37-2.72,1.62.57,2.63-.75,12.86.14,14.58.11.2.87.54,1.21,1,1.17,1.6.81,4.07-1.06,5l4.35,23.57c-.11.42-2.33,1.25-2.54.89-.77-1.29-.73-7.78-1.58-9.58-.56,2.94.81,7.49.24,10.18-.12.55-1.2,1.71-1.78,1.58-.1-.02-1.62-1.28-1.65-1.38-.68-2.32.83-7.47.25-10.13-.91,1.75-.81,8.1-1.59,9.34-.22.36-2.42-.48-2.5-.85,1.23-7.6,2.78-15.17,3.9-22.79.05-.34.42-.74.43-.8,0-.22-2.43-.9-1.94-3.66.27-1.52,1.95-1.96,1.95-2.1v-14Z"/>
    <path class="st2" d="M140.3,31.61v12.28c-8.93,3.31-17.53,7.47-25.62,12.48-7.79-5.33-16.61-8.83-25.21-12.61v-11.91c8.51,2.85,16.73,6.85,25.16,10.04l25.67-10.29Z"/>
  </g>
  <g>
    <path class="st0" d="M244.91,68.45h25.38v-21.4h11.24v52.58h-11.24v-21.4h-25.38v16.14c0,1.31-3.73,5.26-4.9,5.26h-6.35v-52.04l.54-.54h10.15l.54.54v20.85Z"/>
    <path class="st0" d="M599.21,47.06c.42.4-5.13,9.9-5.68,10.09l-23.84.09c-7.02.91-7.49,10.46,1.04,11.22,6.44.58,14.46-1.36,20.39,1.37,12.45,5.74,11.68,23.91-1.23,28.63-.69.25-3.78,1.17-4.27,1.17h-31.73c-.09-.52.11-.9.28-1.35.59-1.55,4.45-8.2,5.87-8.64,7.65-.95,16.6.73,24.09-.2,7.4-.92,7.16-10.38-.69-11.2-9.41-.98-20.23,3.04-27.01-5.99-7.37-9.81.29-25.2,12.15-25.2h30.64Z"/>
    <path class="st0" d="M548.44,47.06l-5.5,10.09-24.02.09c-7.21,1.22-7,10.38.33,11.21,10.52,1.18,24.66-3.63,29.21,10.32,2.97,9.11-3.68,20.87-13.61,20.87h-31.73c.98-1.99,4.35-9.43,6.15-9.99l24.47-.19c7.08-1.25,6.4-10.41-.69-11.21-9.29-1.04-20.12,3-27.01-5.63s-2.39-21.82,8.13-24.85c.53-.15,2.59-.71,2.92-.71h31.37Z"/>
    <path class="st0" d="M496.59,99.64h-11.6l-17.59-35.53-18.13,35.53h-11.06l25.02-49.87c1.86-3.25,5.94-3.63,8.29-.67l24.79,49.19.28,1.35Z"/>
    <path class="st0" d="M398.67,47.06v42.43h31.55c-1.27,3.51-3.45,6.83-5.26,10.15h-36.99l-.54-.54v-47.51c0-1.43,3.2-4.53,4.53-4.53h6.71Z"/>
    <polygon class="st0" points="375.83 47.06 353.33 70.08 376.92 99.64 363.68 99.64 340.66 71.89 339.6 70.14 362.23 47.06 375.83 47.06"/>
    <path class="st0" d="M337.39,47.06v47.69c0,1.41-3.69,4.9-5.26,4.9h-5.98v-52.58h11.24Z"/>
    <path class="st0" d="M298.58,99.64v-50.95c0-.24,2.13-1.63,2.36-1.63h8.34l.54.54v47.14c0,1.29-3.6,4.9-4.9,4.9h-6.35Z"/>
    <path class="st5" d="M457.42,99.64l9.8-19.95,10.36,19.21c.32.22-.34.74-.39.74h-19.76Z"/>
    <path class="st5" d="M587.97,129.01h-42.79v-2.54h42.61c.21,0,1.19-2.57,2.38-3.42,6.85-4.9,14.08,5.49,6.55,9.82-3.6,2.07-7.78.04-8.75-3.86ZM593.68,124.37c-4.15.36-4,6.87.28,6.78,4.34-.09,4.08-7.16-.28-6.78Z"/>
    <path class="st5" d="M244.91,126.47h42.79v2.54h-42.25c-.25,0-1.88,3.02-3.1,3.79-4.36,2.77-9.72-1.09-8.96-6.06.98-6.4,10.21-6.63,11.52-.27ZM239.3,124.47c-4.43-.12-4.03,6.66,0,6.66s4.5-6.54,0-6.66Z"/>
    <g>
      <path class="st6" d="M317.27,132.16h-7.51l-1.57,4.51h-3.5l7.32-19.39h3.02l7.34,19.39h-3.52l-1.58-4.51ZM310.7,129.45h5.62l-2.81-8.04-2.81,8.04Z"/>
      <path class="st6" d="M355.63,130.37c-.2,2.07-.96,3.68-2.29,4.84-1.33,1.16-3.1,1.74-5.31,1.74-1.54,0-2.91-.37-4.08-1.1-1.18-.73-2.08-1.77-2.72-3.12-.64-1.35-.97-2.92-1-4.7v-1.81c0-1.83.32-3.44.97-4.83.65-1.39,1.58-2.47,2.79-3.22,1.21-.75,2.61-1.13,4.2-1.13,2.14,0,3.86.58,5.17,1.74,1.3,1.16,2.06,2.8,2.28,4.92h-3.36c-.16-1.39-.57-2.4-1.22-3.02-.65-.62-1.61-.93-2.87-.93-1.46,0-2.59.54-3.38,1.61-.79,1.07-1.19,2.64-1.21,4.71v1.72c0,2.1.37,3.7,1.13,4.8.75,1.1,1.85,1.65,3.3,1.65,1.32,0,2.32-.3,2.98-.89.67-.59,1.09-1.58,1.27-2.97h3.36Z"/>
      <path class="st6" d="M386.05,132.16h-7.51l-1.57,4.51h-3.5l7.32-19.39h3.02l7.34,19.39h-3.52l-1.58-4.51ZM379.48,129.45h5.62l-2.81-8.04-2.81,8.04Z"/>
      <path class="st6" d="M409.9,136.68v-19.39h5.73c1.71,0,3.23.38,4.56,1.15,1.33.76,2.35,1.85,3.08,3.25.73,1.4,1.09,3.01,1.09,4.82v.97c0,1.84-.37,3.45-1.1,4.85-.73,1.39-1.78,2.47-3.13,3.22-1.35.75-2.91,1.13-4.65,1.13h-5.58ZM413.27,120.01v13.98h2.2c1.77,0,3.12-.55,4.07-1.66.95-1.11,1.43-2.69,1.44-4.76v-1.08c0-2.1-.46-3.71-1.37-4.82s-2.24-1.66-3.98-1.66h-2.36Z"/>
      <path class="st6" d="M455.6,128.02h-7.96v5.97h9.31v2.69h-12.68v-19.39h12.58v2.72h-9.21v5.35h7.96v2.66Z"/>
      <path class="st6" d="M480.61,117.29l5.59,14.86,5.58-14.86h4.35v19.39h-3.36v-6.39l.33-8.55-5.73,14.94h-2.41l-5.71-14.93.33,8.54v6.39h-3.36v-19.39h4.37Z"/>
      <path class="st6" d="M522.62,126.48l4.46-9.19h3.73l-6.5,12.25v7.14h-3.38v-7.14l-6.51-12.25h3.74l4.46,9.19Z"/>
    </g>
  </g>
</svg>