<?xml version="1.0" encoding="utf-8"?>
<!-- Generator: Adobe Illustrator 29.5.0, SVG Export Plug-In . SVG Version: 9.03 Build 0)  -->
<svg version="1.0" id="Layer_1" xmlns="http://www.w3.org/2000/svg" xmlns:xlink="http://www.w3.org/1999/xlink" x="0px" y="0px"
	 viewBox="0 0 370.26 37.72" style="enable-background:new 0 0 370.26 37.72;" xml:space="preserve">
<style type="text/css">
	.st0{fill:#1E4FAD;}
	.st1{fill-rule:evenodd;clip-rule:evenodd;fill:#FFFFFF;}
	.st2{fill:url(#SVGID_1_);}
	.st3{fill:#FFFFFF;}
	.st4{fill:#E02A2F;}
	.st5{fill:#0B8F21;}
	.st6{fill:#FD3832;}
	.st7{fill:#007AB5;}
</style>
<g>
	<g>
		<ellipse transform="matrix(0.93 -0.3676 0.3676 0.93 -5.2638 10.1688)" class="st0" cx="24.06" cy="18.9" rx="14.73" ry="14.73"/>
		<path class="st1" d="M25.96,13.43c0.54-0.02,1.07,0,1.61-0.01c0.07,0,0.13,0,0.22,0v-2.79c-0.29-0.03-0.59-0.07-0.89-0.08
			c-0.55-0.02-1.1-0.05-1.65-0.04c-0.84,0.02-1.63,0.22-2.33,0.72c-0.8,0.57-1.23,1.38-1.4,2.33c-0.07,0.39-0.09,0.8-0.1,1.2
			c-0.02,0.63,0,1.25,0,1.88v0.23h-2.67v3.11h2.65v7.82h3.24V20h2.64c0.14-1.03,0.27-2.06,0.41-3.13c-0.21,0-0.4,0-0.59,0
			c-0.75,0-2.48,0-2.48,0s0.01-1.54,0.03-2.21C24.68,13.74,25.22,13.46,25.96,13.43z"/>
	</g>
	<g>
		<linearGradient id="SVGID_1_" gradientUnits="userSpaceOnUse" x1="91.8991" y1="1.2072" x2="68.3161" y2="30.2565">
			<stop  offset="0.0108" style="stop-color:#3542E0"/>
			<stop  offset="0.1748" style="stop-color:#3841DF"/>
			<stop  offset="0.2744" style="stop-color:#403FDA"/>
			<stop  offset="0.357" style="stop-color:#4E3CD2"/>
			<stop  offset="0.4301" style="stop-color:#6337C7"/>
			<stop  offset="0.4971" style="stop-color:#7D31B9"/>
			<stop  offset="0.5595" style="stop-color:#9E2AA8"/>
			<stop  offset="0.6173" style="stop-color:#C32193"/>
			<stop  offset="0.6236" style="stop-color:#C82091"/>
			<stop  offset="0.7612" style="stop-color:#F62B37"/>
			<stop  offset="1" style="stop-color:#FFC658"/>
		</linearGradient>
		<circle class="st2" cx="77.53" cy="18.9" r="14.73"/>
		<path class="st3" d="M86.15,14.65c-0.12-1.13-0.55-2.13-1.39-2.94c-0.88-0.84-1.97-1.22-3.15-1.28c-2.02-0.11-6.82-0.18-8.51,0.1
			c-1.93,0.31-3.19,1.44-3.72,3.34c-0.41,1.46-0.33,8.21-0.09,9.66c0.33,1.98,1.5,3.25,3.46,3.75c1.36,0.35,8.02,0.31,9.52,0.06
			c1.98-0.32,3.25-1.48,3.77-3.44C86.42,22.4,86.29,16,86.15,14.65z M84.57,23.24c-0.23,1.5-1.23,2.43-2.74,2.6
			c-1.39,0.15-7.58,0.24-8.87-0.12c-1.23-0.34-1.93-1.19-2.14-2.43c-0.2-1.18-0.24-7.1,0-8.68c0.23-1.49,1.22-2.42,2.73-2.59
			c1.52-0.17,7.01-0.19,8.47,0.03c1.5,0.23,2.43,1.23,2.59,2.74C84.75,16.21,84.8,21.73,84.57,23.24z M77.69,14.52
			c-2.44,0-4.41,1.97-4.41,4.41c0,2.44,1.97,4.41,4.41,4.41c2.44,0,4.41-1.97,4.41-4.41C82.1,16.5,80.13,14.52,77.69,14.52z
			 M77.66,21.78c-1.58-0.01-2.84-1.3-2.83-2.88c0.01-1.58,1.3-2.84,2.88-2.83c1.58,0.01,2.84,1.3,2.83,2.88
			C80.52,20.53,79.23,21.8,77.66,21.78z M83.3,14.36c0,0.57-0.46,1.03-1.04,1.03c-0.57,0-1.03-0.46-1.03-1.04
			c0-0.57,0.46-1.03,1.04-1.03C82.84,13.32,83.31,13.79,83.3,14.36z"/>
		<path class="st3" d="M86.15,14.65c-0.12-1.13-0.55-2.13-1.39-2.94c-0.88-0.84-1.97-1.22-3.15-1.28c-2.02-0.11-6.82-0.18-8.51,0.1
			c-1.93,0.31-3.19,1.44-3.72,3.34c-0.41,1.46-0.33,8.21-0.09,9.66c0.33,1.98,1.5,3.25,3.46,3.75c1.36,0.35,8.02,0.31,9.52,0.06
			c1.98-0.32,3.25-1.48,3.77-3.44C86.42,22.4,86.29,16,86.15,14.65z M84.57,23.24c-0.23,1.5-1.23,2.43-2.74,2.6
			c-1.39,0.15-7.58,0.24-8.87-0.12c-1.23-0.34-1.93-1.19-2.14-2.43c-0.2-1.18-0.24-7.1,0-8.68c0.23-1.49,1.22-2.42,2.73-2.59
			c1.52-0.17,7.01-0.19,8.47,0.03c1.5,0.23,2.43,1.23,2.59,2.74C84.75,16.21,84.8,21.73,84.57,23.24z M77.69,14.52
			c-2.44,0-4.41,1.97-4.41,4.41c0,2.44,1.97,4.41,4.41,4.41c2.44,0,4.41-1.97,4.41-4.41C82.1,16.5,80.13,14.52,77.69,14.52z
			 M77.66,21.78c-1.58-0.01-2.84-1.3-2.83-2.88c0.01-1.58,1.3-2.84,2.88-2.83c1.58,0.01,2.84,1.3,2.83,2.88
			C80.52,20.53,79.23,21.8,77.66,21.78z M83.3,14.36c0,0.57-0.46,1.03-1.04,1.03c-0.57,0-1.03-0.46-1.03-1.04
			c0-0.57,0.46-1.03,1.04-1.03C82.84,13.32,83.31,13.79,83.3,14.36z"/>
	</g>
	<g>
		<ellipse transform="matrix(0.93 -0.3676 0.3676 0.93 2.2222 49.4755)" class="st4" cx="131" cy="18.9" rx="14.73" ry="14.73"/>
		<path class="st1" d="M129.73,22.74c-0.02,0.06-0.03,0.11-0.05,0.15c-0.74,2.89-0.82,3.53-1.58,4.87
			c-0.36,0.64-0.77,1.24-1.22,1.82c-0.05,0.07-0.1,0.15-0.2,0.13c-0.11-0.02-0.12-0.12-0.13-0.21c-0.12-0.88-0.19-1.76-0.16-2.64
			c0.04-1.15,0.18-1.55,1.67-7.81c0.02-0.1,0-0.17-0.03-0.26c-0.36-0.96-0.43-1.94-0.12-2.92c0.67-2.13,3.09-2.3,3.52-0.54
			c0.26,1.09-0.43,2.51-0.96,4.62c-0.44,1.74,1.61,2.97,3.36,1.7c1.61-1.17,2.24-3.97,2.12-5.96c-0.23-3.96-4.58-4.82-7.34-3.54
			c-3.16,1.46-3.88,5.38-2.45,7.17c0.18,0.23,0.32,0.37,0.26,0.6c-0.09,0.36-0.17,0.72-0.27,1.08c-0.07,0.27-0.3,0.36-0.56,0.25
			c-0.53-0.21-0.96-0.55-1.32-0.99c-1.21-1.5-1.56-4.47,0.04-6.98c1.77-2.78,5.08-3.91,8.09-3.57c3.6,0.41,5.88,2.87,6.3,5.66
			c0.19,1.27,0.05,4.41-1.73,6.62c-2.05,2.55-5.38,2.71-6.92,1.15C129.94,23.03,129.84,22.89,129.73,22.74z"/>
	</g>
	<g>
		
			<ellipse transform="matrix(0.9995 -0.0311 0.0311 0.9995 -0.4209 10.7257)" class="st5" cx="344.87" cy="18.9" rx="14.73" ry="14.73"/>
		<path class="st1" d="M336.22,27.6c0.1-0.39,0.19-0.73,0.28-1.07c0.3-1.08,0.6-2.17,0.88-3.26c0.04-0.16,0.02-0.38-0.05-0.52
			c-2.76-5.25,0.09-11.61,5.87-12.97c5.25-1.23,9.98,2.31,10.84,7.06c0.9,4.95-2.34,9.64-7.24,10.5c-1.95,0.34-3.81,0.05-5.6-0.82
			c-0.16-0.08-0.38-0.1-0.55-0.06C338.28,27.06,336.7,27.51,336.22,27.6z M338.31,25.54c0.89-0.23,1.71-0.44,2.53-0.67
			c0.23-0.06,0.41-0.03,0.61,0.09c1.54,0.89,3.2,1.22,4.96,0.94c4.07-0.65,6.85-4.46,6.23-8.51c-0.65-4.2-4.58-7.02-8.74-6.26
			c-5.03,0.92-7.71,6.54-5.2,10.98c0.28,0.49,0.35,0.9,0.17,1.42C338.64,24.17,338.5,24.83,338.31,25.54z"/>
		<path class="st1" d="M347.57,22.8c-1.75-0.06-4.54-1.44-6.44-4.76c-0.68-1.18-0.58-2.52,0.41-3.44c0.34-0.31,0.76-0.24,1.15-0.17
			c0.1,0.01,0.2,0.16,0.25,0.27c0.25,0.58,0.5,1.16,0.73,1.75c0.12,0.31-0.1,0.61-0.55,1.13c-0.14,0.16-0.17,0.32-0.06,0.51
			c0.73,1.24,1.76,2.14,3.11,2.67c0.2,0.08,0.35,0.03,0.47-0.13c0.72-0.87,0.79-1.13,1.16-0.95c1.81,0.87,1.95,0.9,1.96,1.11
			C349.82,22.31,348.42,22.86,347.57,22.8z"/>
	</g>
	<g>
		<circle cx="237.94" cy="18.9" r="14.73"/>
		<path class="st3" d="M245.33,26.46c-0.18,0.01-0.27,0.02-0.37,0.02c-1.22,0-2.44-0.01-3.66,0.01c-0.26,0-0.41-0.1-0.55-0.31
			c-1.17-1.72-2.36-3.44-3.54-5.16c-0.09-0.13-0.18-0.25-0.3-0.42c-0.12,0.13-0.22,0.23-0.32,0.34c-1.49,1.73-2.99,3.46-4.46,5.2
			c-0.21,0.25-0.43,0.37-0.76,0.34c-0.23-0.02-0.47,0-0.81,0c1.97-2.29,3.87-4.5,5.78-6.73c-1.92-2.79-3.82-5.56-5.75-8.38
			c0.16-0.02,0.26-0.04,0.36-0.04c1.21,0,2.41,0.01,3.62-0.01c0.28,0,0.44,0.09,0.59,0.31c1.1,1.62,2.21,3.23,3.32,4.85
			c0.09,0.13,0.18,0.25,0.3,0.42c0.12-0.14,0.23-0.24,0.32-0.36c1.4-1.62,2.8-3.25,4.19-4.88c0.2-0.24,0.4-0.37,0.72-0.34
			c0.24,0.02,0.48,0,0.78,0c-0.2,0.4-0.5,0.65-0.75,0.95c-0.25,0.31-0.52,0.6-0.77,0.91c-0.26,0.3-0.52,0.6-0.78,0.9
			c-0.27,0.31-0.54,0.62-0.81,0.94c-0.26,0.3-0.52,0.6-0.78,0.9c-0.26,0.3-0.52,0.6-0.78,0.9c-0.26,0.3-0.51,0.6-0.78,0.91
			C241.33,20.64,243.31,23.52,245.33,26.46z M243.55,25.54c-0.11-0.18-0.18-0.3-0.25-0.41c-2.91-4.16-5.82-8.32-8.72-12.49
			c-0.16-0.23-0.32-0.36-0.62-0.34c-0.41,0.03-0.82,0-1.23,0c-0.11,0-0.22,0.02-0.38,0.03c0.11,0.17,0.18,0.3,0.27,0.42
			c2.1,3,4.19,6,6.29,9c0.81,1.16,1.62,2.33,2.44,3.49c0.08,0.12,0.21,0.29,0.33,0.29C242.27,25.56,242.87,25.54,243.55,25.54z"/>
	</g>
	<g>
		
			<ellipse transform="matrix(0.93 -0.3676 0.3676 0.93 13.4513 108.4356)" class="st6" cx="291.41" cy="18.9" rx="14.73" ry="14.73"/>
		<path class="st1" d="M284.37,24.75c-0.67-0.22-1.12-0.66-1.36-1.32c-0.59-1.62-0.76-8.39,0.37-9.73c0.39-0.46,0.89-0.72,1.48-0.79
			c3.05-0.33,12.49-0.28,13.58,0.11c0.64,0.23,1.09,0.65,1.34,1.28c0.64,1.67,0.67,7.76-0.09,9.37c-0.2,0.44-0.54,0.75-0.96,0.97
			C297.6,25.25,285.87,25.24,284.37,24.75z M289.22,21.57c1.84-0.95,3.66-1.9,5.5-2.85c-1.85-0.96-3.67-1.91-5.5-2.87
			C289.22,17.76,289.22,19.66,289.22,21.57z"/>
	</g>
	<g>
		<circle class="st7" cx="184.47" cy="18.9" r="14.73"/>
		<path class="st3" d="M177.39,15.55h3.32v10.68h-3.32V15.55z M179.05,10.24c1.06,0,1.92,0.86,1.92,1.92c0,1.06-0.86,1.93-1.92,1.93
			c-1.07,0-1.93-0.86-1.93-1.93C177.13,11.11,177.99,10.24,179.05,10.24"/>
		<path class="st3" d="M182.8,15.55h3.18v1.46h0.04c0.44-0.84,1.53-1.73,3.14-1.73c3.36,0,3.98,2.21,3.98,5.09v5.86h-3.32v-5.19
			c0-1.24-0.02-2.83-1.73-2.83c-1.73,0-1.99,1.35-1.99,2.74v5.28h-3.32V15.55z"/>
	</g>
</g>
</svg>
