<svg xmlns="http://www.w3.org/2000/svg" viewBox="0 0 32 32" role="img" aria-label="WhatsApp">
  <path fill="#FFFFFF" d="M16.01 3.2A12.77 12.77 0 0 0 3.23 15.97c0 2.25.59 4.45 1.72 6.38L3.1 29.1l6.91-1.81a12.77 12.77 0 1 0 6-24.09Zm0 23.38c-2.02 0-3.99-.55-5.7-1.59l-.41-.25-4.1 1.07 1.1-4-.27-.42a10.55 10.55 0 0 1-1.62-5.42 10.99 10.99 0 1 1 11 10.61Zm6.03-7.92c-.33-.17-1.96-.97-2.27-1.08-.3-.11-.52-.17-.74.17-.22.33-.85 1.08-1.04 1.3-.19.22-.39.25-.72.08-.33-.17-1.4-.52-2.67-1.65-.99-.88-1.65-1.97-1.84-2.3-.19-.33-.02-.51.15-.68.15-.15.33-.39.5-.58.17-.19.22-.33.33-.55.11-.22.06-.41-.03-.58-.08-.17-.74-1.79-1.02-2.45-.27-.64-.54-.55-.74-.56h-.63c-.22 0-.58.08-.88.41-.3.33-1.16 1.13-1.16 2.76s1.19 3.2 1.35 3.42c.17.22 2.34 3.57 5.66 5 .79.34 1.4.54 1.88.7.79.25 1.51.22 2.08.13.63-.09 1.96-.8 2.24-1.57.28-.77.28-1.43.19-1.57-.08-.14-.3-.22-.64-.39Z"/>
</svg>
