<?xml version="1.0" encoding="UTF-8"?>
<svg id="Layer_1" xmlns="http://www.w3.org/2000/svg" version="1.1" viewBox="0 0 256 256">
  <!-- Generator: Adobe Illustrator 29.5.0, SVG Export Plug-In . SVG Version: 2.1.0 Build 137)  -->
  <defs>
    <style>
      .st0 {
        fill: #fff;
      }

      .st1 {
        fill: #283d96;
      }

      .st2 {
        fill: #1f5aa6;
      }

      .st3 {
        fill: #2e2a70;
      }

      .st4 {
        fill: #e3282c;
      }

      .st5 {
        fill: #7e7a7a;
      }

      .st6 {
        fill: #196db1;
      }

      .st7 {
        fill: #e4272b;
      }
    </style>
  </defs>
  <rect class="st0" y=".97" width="256" height="256" rx="42" ry="42"/>
  <g>
    <path class="st5" d="M127.9,52.59l90.75,94.87-90.52,95.28-90.77-95.23L127.9,52.59ZM127.9,60.2l-83.25,87.31,83.25,87.62,83.79-87.62L127.9,60.2Z"/>
    <path class="st0" d="M127.9,60.2l83.79,87.31-83.79,87.62-83.25-87.62L127.9,60.2ZM161.29,100.75l-33.4-34.21-32.85,34.21h15.53v34.24h34.87v-34.24h15.85ZM89.65,106.45l-38.97,40.78,38.97,40.69v-81.47ZM166.37,106.45v81.47l38.97-40.69-38.97-40.78ZM145.44,192.68v-38.83s-.44-.48-.48-.48h-33.92s-.48.44-.48.48v38.83h-16.48l33.81,36.11,34.35-36.11h-16.8Z"/>
    <path class="st3" d="M145.44,192.68h16.8l-34.35,36.11-33.81-36.11h16.48v-38.83s.44-.48.48-.48h33.92s.48.44.48.48v38.83Z"/>
    <polygon class="st2" points="161.29 100.75 145.44 100.75 145.44 134.98 110.57 134.98 110.57 100.75 95.04 100.75 127.9 66.54 161.29 100.75"/>
    <polygon class="st7" points="166.37 106.45 205.33 147.23 166.37 187.92 166.37 106.45"/>
    <polygon class="st4" points="89.65 106.45 89.65 187.92 50.69 147.23 89.65 106.45"/>
    <path class="st6" d="M174.4,40.87l-46.73,18.68-53.13-21.06c-.06-.63,2.36-1.51,2.96-1.8,16.22-7.78,33.81-13.87,50.17-21.49l53.07,22.51c.62.92-3.39,1.76-3.51,2.09.73,3.39-.97,16.61.18,18.82.14.26,1.12.69,1.56,1.29,1.51,2.07,1.04,5.26-1.37,6.46l5.61,30.42c-.14.54-3,1.61-3.28,1.15-.99-1.66-.94-10.05-2.05-12.37-.73,3.8,1.05,9.67.3,13.14-.15.71-1.55,2.21-2.3,2.03-.14-.03-2.09-1.65-2.13-1.78-.87-3,1.07-9.64.32-13.08-1.18,2.26-1.05,10.45-2.05,12.05-.29.47-3.12-.62-3.23-1.1,1.59-9.82,3.58-19.58,5.04-29.42.07-.44.55-.96.55-1.03,0-.29-3.13-1.16-2.51-4.73.34-1.96,2.52-2.52,2.52-2.71v-18.07Z"/>
    <path class="st1" d="M160.77,51.01v15.85c-11.52,4.28-22.63,9.64-33.07,16.11-10.06-6.88-21.44-11.4-32.55-16.27v-15.37c10.99,3.68,21.59,8.85,32.49,12.96l33.13-13.28Z"/>
  </g>
</svg>